<svg width="18" height="18" viewBox="0 0 320 320" fill="none" xmlns="http://www.w3.org/2000/svg">
<g clip-path="url(#clip0_1_2)">
<path d="M0 0C105.6 0 211.2 0 320 0C320 105.6 320 211.2 320 320C214.4 320 108.8 320 0 320C0 214.4 0 108.8 0 0Z" fill="#020202"/>
<path d="M129.312 82.75C130.236 82.7575 131.16 82.765 132.111 82.7727C148.387 83.0286 163.752 86.8701 175.695 98.6758C178.656 102.085 179.836 104.781 180.438 109.25C179.856 114.234 177.627 116.674 174 120C170.078 121.961 166.259 121.734 162 121C157.122 119.122 152.573 116.492 147.978 114.022C143.464 111.689 138.724 109.861 134 108C136.64 110.31 139.28 112.62 142 115C139 116 139 116 136.949 115.582C126.218 113.464 112.549 113.235 103 119C104.65 119.33 106.3 119.66 108 120C107.59 120.459 107.18 120.918 106.758 121.391C106.219 122.004 105.68 122.618 105.125 123.25C104.591 123.853 104.058 124.457 103.508 125.078C100.751 128.592 100 130.438 100 135C100.33 134.34 100.66 133.68 101 133C101.66 133 102.32 133 103 133C103.086 133.675 103.173 134.351 103.262 135.047C104.108 140.712 104.108 140.712 107.125 145.437C113.246 148.785 113.246 148.785 120 150C119.495 149.602 118.989 149.203 118.469 148.793C117.819 148.263 117.169 147.733 116.5 147.188C115.85 146.665 115.201 146.143 114.531 145.605C113 144 113 144 113 141C113.886 141.217 114.771 141.433 115.684 141.656C128.722 144.587 142.302 146.241 155 141C154.01 142.65 153.02 144.3 152 146C155.196 146 156.417 145.453 159.188 144C160.446 143.34 161.704 142.68 163 142C163 145.63 163 149.26 163 153C163.784 152.031 164.567 151.061 165.375 150.062C167.709 147.176 168.94 146.121 172.75 145.687C176.771 146.074 178.827 147.582 182 150C184.691 148.78 184.691 148.78 187 147C191.998 146.616 195.006 146.894 199 150C200.812 152.188 200.812 152.188 202 154C200.588 148.738 198.251 145.278 195 141C197.23 141.526 199.202 142.087 201.312 143C204.519 144.193 207.611 144.601 211 145C211 144.34 211 143.68 211 143C210.381 142.897 209.762 142.794 209.125 142.687C207 142 207 142 205 139C205.564 139.021 206.128 139.042 206.709 139.063C209.306 139.147 211.902 139.199 214.5 139.25C215.83 139.3 215.83 139.3 217.188 139.352C223.48 139.444 227.648 138.273 233 135C233.66 134.67 234.32 134.34 235 134C234.67 135.65 234.34 137.3 234 139C237.352 134.999 239.145 132.268 239.125 127C239.128 126.319 239.13 125.639 239.133 124.937C239.066 122.781 239.066 122.781 238 120C238.99 119.67 239.98 119.34 241 119C233.367 112.067 225.798 112.024 216 112C220.625 107.125 220.625 107.125 224 106C214.544 106.516 208.664 110.29 201.875 116.75C197.856 120.536 195.531 122.12 190 122C187.326 118.791 186.735 116.312 186.938 112.25C188.148 103.836 192.689 98.7129 199.312 93.6875C212.352 84.7693 225.743 83.1335 241.258 85.4961C250.475 88.0532 257.332 93.4144 263.25 100.812C265.406 104.74 265.694 107.56 266 112C266.763 111.67 267.526 111.34 268.312 111C276.605 108.751 283.4 109.334 290.906 113.586C296.077 117.078 298.625 121.993 300 128C301.358 140.971 298.513 151.228 290.344 161.359C286.13 166.106 282.209 170.119 276 172C276 172.66 276 173.32 276 174C273.333 174.667 270.667 175.333 268 176C267.252 176.187 266.505 176.374 265.734 176.566C265.162 176.709 264.59 176.853 264 177C264.41 176.282 264.82 175.564 265.242 174.824C270.351 165.01 271.331 155.916 272 145C275.424 147.984 275.578 150.525 276 155C276.966 151.757 277.134 148.815 277.125 145.437C277.128 144.487 277.13 143.537 277.133 142.559C277.108 139.879 277.108 139.879 276 137C280.875 138.875 280.875 138.875 282 140C281.459 135.405 280.045 132.491 277 129C273.764 127.349 270.453 126.12 267 125C266.902 125.557 266.804 126.114 266.703 126.687C264.767 136.57 261.365 143.074 253 149C252.01 149.33 251.02 149.66 250 150C252.97 150.33 255.94 150.66 259 151C257.606 156.268 254.265 158.927 250 162C246.562 163.875 246.562 163.875 244 165C244.928 165.557 245.856 166.114 246.812 166.688C251.967 170.427 253.721 174.89 255 181C255.297 184.005 255.334 186.981 255.312 190C255.305 191.247 255.305 191.247 255.298 192.52C254.997 208.603 250.567 224.87 241 238C240.34 238.33 239.68 238.66 239 239C239 236.69 239 234.38 239 232C238.34 232 237.68 232 237 232C236.773 232.701 236.546 233.402 236.312 234.125C235.03 236.935 233.503 238.962 231.477 241.273C229.79 243.245 228.248 245.302 226.688 247.375C221.306 254.298 215.897 260.052 208 264C208 262.68 208 261.36 208 260C207.143 260.566 206.286 261.132 205.402 261.715C204.248 262.456 203.093 263.197 201.938 263.937C201.376 264.311 200.815 264.684 200.236 265.068C191.236 270.777 178.364 269.867 168 269C164.051 268.098 160.599 266.84 157 265C156.247 264.626 155.494 264.252 154.719 263.867C154.152 263.581 153.584 263.295 153 263C152.67 263.66 152.34 264.32 152 265C150.02 264.01 148.04 263.02 146 262C145.67 262.99 145.34 263.98 145 265C125.679 254.732 110.284 243.318 99 224C99 226.64 99 229.28 99 232C95.0191 229.161 92.9348 226.643 90.8125 222.25C90.3239 221.265 89.8354 220.28 89.332 219.266C86.1614 211.493 85.6354 204.506 85.625 196.188C85.6005 195.171 85.576 194.155 85.5508 193.107C85.5179 184.503 87.1109 176.233 92.625 169.375C95 167 95 167 97 166C96.3941 165.743 95.7883 165.487 95.1641 165.223C88.1259 162.007 79.5918 157.184 76 150C78.97 150.66 81.94 151.32 85 152C84.5785 151.169 84.157 150.337 83.7227 149.48C83.1748 148.394 82.627 147.307 82.0625 146.187C81.5172 145.109 80.972 144.03 80.4102 142.918C75.6108 132.987 77.4425 121.626 80.8081 111.509C82.7439 106.168 85.0174 102.028 89 98C89.6471 97.3155 90.2942 96.631 90.9609 95.9258C101.421 85.711 115.104 82.5976 129.312 82.75Z" fill="#FCFBFA"/>
<path d="M129.312 82.75C130.236 82.7575 131.16 82.765 132.111 82.7727C148.387 83.0286 163.752 86.8701 175.695 98.6758C178.656 102.085 179.836 104.781 180.438 109.25C179.856 114.234 177.627 116.674 174 120C170.078 121.961 166.259 121.734 162 121C157.122 119.122 152.573 116.492 147.978 114.022C143.464 111.689 138.724 109.861 134 108C136.64 110.31 139.28 112.62 142 115C139 116 139 116 136.949 115.582C126.218 113.464 112.549 113.235 103 119C104.65 119.33 106.3 119.66 108 120C107.59 120.459 107.18 120.918 106.758 121.391C106.219 122.004 105.68 122.618 105.125 123.25C104.591 123.853 104.058 124.457 103.508 125.078C100.751 128.592 100 130.438 100 135C100.33 134.34 100.66 133.68 101 133C101.66 133 102.32 133 103 133C103.086 133.675 103.173 134.351 103.262 135.047C104.108 140.712 104.108 140.712 107.125 145.437C113.246 148.785 113.246 148.785 120 150C119.495 149.602 118.989 149.203 118.469 148.793C117.819 148.263 117.169 147.733 116.5 147.188C115.85 146.665 115.201 146.143 114.531 145.605C113 144 113 144 113 141C113.886 141.217 114.771 141.433 115.684 141.656C128.722 144.587 142.302 146.241 155 141C154.01 142.65 153.02 144.3 152 146C156.043 146.224 156.043 146.224 163 142C163 149.26 163 156.52 163 164C164.32 162.68 165.64 161.36 167 160C170.347 159.313 171.642 159.782 174.562 161.562C180.007 167.007 182.022 172.706 182.062 180.312C182.042 181.529 182.021 182.746 182 184C180.847 181.694 179.818 179.496 178.938 177.062C176.219 172.765 172.635 170.932 168 169C167.135 168.832 166.27 168.665 165.379 168.492C162.185 167.831 160.466 166.067 158 164C157.34 164 156.68 164 156 164C154 161 154 161 154 158C153.152 158.321 152.304 158.642 151.43 158.973C137.761 163.067 124.601 158.166 112 153C117.334 158.834 123.309 162.885 131 165C130.278 165.454 129.556 165.907 128.812 166.375C122.499 172.268 119.09 181.572 118.699 190.129C118.68 191.607 118.676 193.085 118.688 194.562C118.693 195.348 118.699 196.133 118.705 196.941C118.924 207.656 120.619 217.018 126.695 226.012C128 228 128 228 129 231C129.66 231 130.32 231 131 231C130.505 226.545 130.505 226.545 130 222C130.66 222 131.32 222 132 222C133.087 223.752 134.093 225.555 135.062 227.375C138.674 233.731 142.843 238.843 148 244C148.699 244.699 149.397 245.397 150.117 246.117C158.228 253.753 167.964 259.277 178 264C177.505 260.535 177.505 260.535 177 257C178.65 257.33 180.3 257.66 182 258C182 258.66 182 259.32 182 260C182.577 260.289 183.155 260.577 183.75 260.875C186 262 186 262 188 263.187C190.551 264.224 191.445 263.978 194 263C195.914 261.159 195.914 261.159 197.625 258.937C198.709 257.591 199.826 256.269 201 255C201.66 255 202.32 255 203 255C202.762 259.042 202.369 261.48 200 264.812C193.707 269.401 185.692 269.388 178.125 269.375C176.815 269.375 176.815 269.375 175.479 269.375C168.716 269.255 163.068 268.102 157 265C156.247 264.626 155.494 264.252 154.719 263.867C154.152 263.581 153.584 263.295 153 263C152.67 263.66 152.34 264.32 152 265C150.02 264.01 148.04 263.02 146 262C145.67 262.99 145.34 263.98 145 265C125.679 254.732 110.284 243.318 99 224C99 226.64 99 229.28 99 232C95.0191 229.161 92.9348 226.643 90.8125 222.25C90.3239 221.265 89.8354 220.28 89.332 219.266C86.1614 211.493 85.6354 204.506 85.625 196.188C85.6005 195.171 85.576 194.155 85.5508 193.107C85.5179 184.503 87.1109 176.233 92.625 169.375C95 167 95 167 97 166C96.3941 165.743 95.7883 165.487 95.1641 165.223C88.1259 162.007 79.5918 157.184 76 150C78.97 150.66 81.94 151.32 85 152C84.5785 151.169 84.157 150.337 83.7227 149.48C83.1748 148.394 82.627 147.307 82.0625 146.187C81.5172 145.109 80.972 144.03 80.4102 142.918C75.6108 132.987 77.4425 121.626 80.8081 111.509C82.7439 106.168 85.0174 102.028 89 98C89.6471 97.3155 90.2942 96.631 90.9609 95.9258C101.421 85.711 115.104 82.5976 129.312 82.75Z" fill="#F6C042"/>
<path d="M67 103C67.495 110.92 67.495 110.92 68 119C66.4944 119.268 64.9887 119.536 63.4375 119.812C55.4511 121.437 49.6234 123.731 44.8047 130.738C42.7226 134.138 42 135.94 42 140C42.4705 139.627 42.941 139.255 43.4258 138.871C44.0484 138.398 44.671 137.925 45.3125 137.437C45.9274 136.962 46.5423 136.486 47.1758 135.996C48.0788 135.503 48.0788 135.503 49 135C49.99 135.33 50.98 135.66 52 136C51.34 136.99 50.68 137.98 50 139C49.6809 142.262 49.6809 142.262 49.75 145.875C49.7448 147.089 49.7397 148.304 49.7344 149.555C49.9865 152.824 50.594 155.065 52 158C52.098 157.397 52.1959 156.793 52.2969 156.172C52.4464 155.373 52.5959 154.573 52.75 153.75C52.8892 152.961 53.0284 152.172 53.1719 151.359C54.1912 148.455 55.7205 147.02 58 145C58.0344 145.573 58.0688 146.147 58.1042 146.737C59.0354 161.134 60.5355 173.489 70 185C70.99 185.495 70.99 185.495 72 186C71.67 186.66 71.34 187.32 71 188C51.4827 181.896 31.3651 173.902 20.9258 154.922C20.6203 154.288 20.3148 153.653 20 153C19.6842 152.386 19.3684 151.773 19.043 151.141C15.0405 141.71 15.4254 127.615 18.9727 118.102C23.1478 109.561 29.2213 104.754 38 101.187C47.7886 98.2509 57.4942 99.9982 67 103Z" fill="#FBFBF7"/>
<path d="M140 83C141.174 83.1044 142.349 83.2088 143.559 83.3164C155.976 84.8504 168.769 90.7007 177.062 100.25C180.072 104.522 180.602 107.838 180 113C177.898 116.273 175.512 119.244 172 121C162.772 122.921 155.78 118.216 147.978 114.022C143.464 111.689 138.724 109.861 134 108C136.64 110.31 139.28 112.62 142 115C138.706 116.098 137.835 115.889 134.562 115.125C129.042 114.037 123.607 113.642 118 113.375C117.13 113.332 116.26 113.29 115.364 113.246C110.717 113.043 106.149 113.038 101.5 113.25C97.9424 113.272 97.2899 113.216 94.3125 111C92.6807 107.27 91.9707 103.996 93 100C102.298 84.4685 123.753 81.0544 140 83Z" fill="#FCFBFA"/>
<path d="M142 191C142.66 191.33 143.32 191.66 144 192C144.33 192.99 144.66 193.98 145 195C147.671 196.232 147.671 196.232 150.938 197.125C152.019 197.458 153.101 197.79 154.215 198.133C163.252 200.203 172.422 200.214 181.657 200.24C183.733 200.25 185.807 200.281 187.883 200.313C196.9 200.383 205.289 199.507 214 197C214.33 196.67 214.66 196.34 215 196C214.01 195.01 214.01 195.01 213 194C217.002 193.12 219.412 192.789 223.312 194.188C226.08 196.054 227.072 196.846 228 200C228.125 202.75 228.125 202.75 228 205C227.34 205 226.68 205 226 205C225.01 204.01 225.01 204.01 224 203C223.526 204.155 223.051 205.31 222.562 206.5C218.345 214.876 210.715 220.08 202 223C184.598 227.544 165.056 226.969 149.051 218.426C140.905 213.202 135.28 206.067 132 197C130.35 198.65 128.7 200.3 127 202C127.276 198.413 127.595 195.686 129.438 192.563C133.404 190.144 137.464 190.518 142 191Z" fill="#141244"/>
<path d="M218 85C233.722 84.5537 246.425 84.5134 258.75 95.4375C263.617 100.98 265.499 104.736 266 112C266.763 111.67 267.526 111.34 268.312 111C276.605 108.751 283.4 109.334 290.906 113.586C296.077 117.078 298.625 121.993 300 128C301.358 140.971 298.513 151.228 290.344 161.359C286.13 166.106 282.209 170.119 276 172C276 172.66 276 173.32 276 174C273.333 174.667 270.667 175.333 268 176C267.252 176.187 266.505 176.374 265.734 176.566C265.162 176.709 264.59 176.853 264 177C264.41 176.282 264.82 175.564 265.242 174.824C270.351 165.01 271.331 155.916 272 145C275.424 147.984 275.578 150.525 276 155C276.966 151.757 277.134 148.815 277.125 145.437C277.128 144.487 277.13 143.537 277.133 142.559C277.108 139.879 277.108 139.879 276 137C280.875 138.875 280.875 138.875 282 140C281.459 135.405 280.045 132.491 277 129C273.764 127.349 270.453 126.12 267 125C266.853 125.835 266.853 125.835 266.703 126.687C264.726 136.78 261.242 142.738 253 149C249.356 151.429 247.288 151.162 243 151C242.505 150.01 242.505 150.01 242 149C243.031 148.649 244.062 148.299 245.125 147.937C251.368 145.2 254.694 140.312 257.375 134.187C260.267 125.402 260.933 113.591 257.438 104.875C256.347 102.861 256.347 102.861 255 101C254.271 99.9443 254.271 99.9443 253.527 98.8672C248.629 92.5905 242.451 89.4837 235 87C233.666 86.856 232.328 86.7541 230.988 86.6836C229.852 86.6207 229.852 86.6207 228.693 86.5566C227.515 86.4977 227.515 86.4977 226.312 86.4375C225.515 86.3943 224.718 86.3511 223.896 86.3066C221.931 86.2007 219.966 86.0999 218 86C218 85.67 218 85.34 218 85Z" fill="#F8F3F7"/>
<path d="M113 141C113.886 141.217 114.771 141.433 115.684 141.656C128.722 144.587 142.302 146.241 155 141C154.01 142.65 153.02 144.3 152 146C156.043 146.224 156.043 146.224 163 142C163 149.26 163 156.52 163 164C164.32 162.68 165.64 161.36 167 160C170.347 159.313 171.642 159.782 174.562 161.562C180.007 167.007 182.022 172.706 182.062 180.312C182.042 181.529 182.021 182.746 182 184C180.847 181.694 179.818 179.496 178.938 177.062C176.219 172.765 172.635 170.932 168 169C167.135 168.832 166.27 168.665 165.379 168.492C162.185 167.831 160.466 166.067 158 164C157.34 164 156.68 164 156 164C154 161 154 161 154 158C153.152 158.321 152.304 158.642 151.43 158.973C137.761 163.067 124.601 158.166 112 153C117.334 158.834 123.309 162.885 131 165C129.35 166.32 127.7 167.64 126 169C125.67 167.68 125.34 166.36 125 165C124.01 165 123.02 165 122 165C122 164.34 122 163.68 122 163C121.01 163 120.02 163 119 163C119 162.34 119 161.68 119 161C118.01 161 117.02 161 116 161C116 160.34 116 159.68 116 159C115.01 159 114.02 159 113 159C111 156 111 156 111 152C117.75 150 117.75 150 120 150C119.495 149.602 118.989 149.203 118.469 148.793C117.494 147.998 117.494 147.998 116.5 147.188C115.525 146.404 115.525 146.404 114.531 145.605C113 144 113 144 113 141Z" fill="#F4BF44"/>
<path d="M144 201C145.646 201.289 147.292 201.582 148.938 201.875C149.854 202.037 150.771 202.2 151.715 202.367C155 203 155 203 158.828 204.055C165.313 205.506 171.936 205.298 178.546 205.261C180.797 205.25 183.048 205.261 185.299 205.273C192.865 205.28 200.043 204.945 207.491 203.429C210.043 202.993 212.416 202.927 215 203C211.928 205.552 209.015 206.888 205.25 208.188C204.265 208.532 203.28 208.876 202.266 209.23C201.518 209.484 200.77 209.738 200 210C205.569 209.52 210.671 208.701 216 207C210.95 214.238 204.213 217.575 195.625 219.312C178.499 221.589 161.729 220.999 147 211C144.438 208.812 144.438 208.812 143 207C143 206.34 143 205.68 143 205C148.28 206.32 153.56 207.64 159 209C156.525 208.01 156.525 208.01 154 207C152.221 206.143 150.449 205.268 148.688 204.375C147.804 203.929 146.921 203.483 146.012 203.023C145.348 202.686 144.684 202.348 144 202C144 201.67 144 201.34 144 201Z" fill="#EFEFF4"/>
<path d="M255.688 150.75C256.781 150.833 257.874 150.915 259 151C257.606 156.268 254.265 158.927 250 162C246.562 163.875 246.562 163.875 244 165C244.928 165.557 245.856 166.114 246.812 166.688C251.967 170.427 253.721 174.89 255 181C255.297 184.005 255.334 186.981 255.312 190C255.308 190.832 255.303 191.663 255.298 192.52C254.997 208.603 250.567 224.87 241 238C240.01 238.495 240.01 238.495 239 239C237.773 233.338 237.704 230.019 240.188 224.75C246.251 211.453 250.465 191.394 246.094 177.02C245.065 174.604 245.065 174.604 243.875 172.566C243 171 243 171 243 169C242.402 168.732 241.804 168.464 241.188 168.188C239.017 167.009 237.692 165.769 236 164C236.519 163.769 237.039 163.539 237.574 163.301C243.031 160.749 247.214 158.004 250.375 152.688C252 151 252 151 255.688 150.75Z" fill="#D84982"/>
<path d="M61 101C61 101.33 61 101.66 61 102C59.5324 102.039 59.5324 102.039 58.0352 102.078C47.6682 102.527 39.4496 103.959 31.5703 111.16C24.3279 119.646 23.4692 129.297 24 140C26.5496 154.278 36.4982 166.611 48 175C54.5744 179.451 54.5744 179.451 62 182C62 182.66 62 183.32 62 184C47.4926 182.283 34.3695 171.661 25 161C23.0499 158.447 21.4558 155.862 20 153C19.6803 152.383 19.3606 151.765 19.0312 151.129C15.0544 141.684 15.4226 127.623 18.9727 118.102C23.1478 109.561 29.2213 104.754 38 101.187C45.2971 98.9984 53.6405 99.3182 61 101Z" fill="#EFBE50"/>
<path d="M218 85C233.722 84.5537 246.425 84.5134 258.75 95.4375C263.69 101.063 265.26 104.722 266 112C266.66 112.33 267.32 112.66 268 113C267.484 125.353 266.628 135.611 258 145C252.904 149.504 249.89 151.26 243 151C242.505 150.01 242.505 150.01 242 149C243.031 148.649 244.062 148.299 245.125 147.937C251.368 145.2 254.694 140.312 257.375 134.187C260.267 125.402 260.933 113.591 257.438 104.875C256.347 102.861 256.347 102.861 255 101C254.271 99.9443 254.271 99.9443 253.527 98.8672C248.629 92.5905 242.451 89.4837 235 87C233.666 86.856 232.328 86.7541 230.988 86.6836C229.852 86.6207 229.852 86.6207 228.693 86.5566C227.515 86.4977 227.515 86.4977 226.312 86.4375C225.515 86.3943 224.718 86.3511 223.896 86.3066C221.931 86.2007 219.966 86.0999 218 86C218 85.67 218 85.34 218 85Z" fill="#C15680"/>
<path d="M272 110C280.213 109.297 286.107 110.345 293 115C298.404 120.127 300.167 126.511 300.375 133.75C299.916 147.287 295.513 156.308 286.031 166.016C282.933 168.815 280.053 170.772 276 172C276 172.66 276 173.32 276 174C274.68 173.67 273.36 173.34 272 173C272.496 172.66 272.993 172.319 273.504 171.969C282.383 165.634 288.862 158.451 291.586 147.684C293.075 138.035 293.234 127.314 287.641 118.973C283.184 113.355 279.036 111.982 272 111C272 110.67 272 110.34 272 110Z" fill="#DB4682"/>
<path d="M142 191C142.66 191.33 143.32 191.66 144 192C144.33 192.99 144.66 193.98 145 195C154.236 199.384 164.297 199.8 174.312 200.25C175.747 200.327 177.181 200.405 178.615 200.484C182.076 200.673 185.538 200.842 189 201C189 201.33 189 201.66 189 202C181.08 202.495 181.08 202.495 173 203C173.495 204.485 173.495 204.485 174 206C163.991 206.656 154.69 204.228 145 202C154.319 206.018 154.319 206.018 164 209C164 209.33 164 209.66 164 210C156.059 209.562 148.078 208.739 140.965 204.902C138.755 203.722 138.755 203.722 135 204C134.01 201.69 133.02 199.38 132 197C130.35 198.65 128.7 200.3 127 202C127.276 198.413 127.595 195.686 129.438 192.563C133.404 190.144 137.464 190.518 142 191Z" fill="#161549"/>
<path d="M201 255C201.66 255 202.32 255 203 255C202.762 259.042 202.369 261.48 200 264.812C193.419 269.611 185.301 269.275 177.438 269.125C176.524 269.116 175.611 269.107 174.67 269.098C172.446 269.074 170.223 269.042 168 269C168 268.34 168 267.68 168 267C168.99 266.34 169.98 265.68 171 265C171.33 264.67 171.66 264.34 172 264C174 263.959 176 263.957 178 264C177.67 261.69 177.34 259.38 177 257C178.65 257.33 180.3 257.66 182 258C182 258.66 182 259.32 182 260C182.577 260.289 183.155 260.577 183.75 260.875C186 262 186 262 188 263.188C190.551 264.224 191.445 263.978 194 263C195.914 261.159 195.914 261.159 197.625 258.938C198.709 257.591 199.826 256.269 201 255Z" fill="#F3B464"/>
<path d="M228 230C229.32 230.66 230.64 231.32 232 232C232.873 237.785 231.968 240.65 228.562 245.438C222.666 252.938 216.656 259.764 208 264C209.02 257.881 211.454 255.288 215.906 251.094C221.899 245.101 225.198 237.894 228 230Z" fill="#D35387"/>
<path d="M121 125C122.32 125 123.64 125 125 125C125.99 127.31 126.98 129.62 128 132C127.67 131.01 127.34 130.02 127 129C127 127.68 127 126.36 127 125C128.32 125 129.64 125 131 125C131.182 125.849 131.182 125.849 131.367 126.715C131.535 127.448 131.702 128.182 131.875 128.938C132.119 130.034 132.119 130.034 132.367 131.152C132.83 133.207 132.83 133.207 135 134C137.916 134.417 137.916 134.417 141 134C143.251 132.083 143.251 132.083 145 130C145.66 130 146.32 130 147 130C146.67 131.32 146.34 132.64 146 134C146.433 133.505 146.866 133.01 147.312 132.5C149 131 149 131 152 131C150.604 134.373 149.076 136.042 146 138C140.875 139.708 135.071 139.932 129.863 138.352C125.066 135.916 123.143 132.714 121 128C121 127.01 121 126.02 121 125Z" fill="#ECECEF"/>
<path d="M297 122C301.72 129.081 300.645 137.937 299.062 146C296.419 155.546 289.253 164.511 281 170C278.062 171.375 278.062 171.375 276 172C276 172.66 276 173.32 276 174C274.68 173.67 273.36 173.34 272 173C272.496 172.66 272.993 172.319 273.504 171.969C284.013 164.471 289.235 156.236 293 144C294.65 144 296.3 144 298 144C297.67 136.74 297.34 129.48 297 122Z" fill="#BE5680"/>
<path d="M211 200C211.495 201.485 211.495 201.485 212 203C203.06 205.737 194.889 206.134 185.562 206.062C184.449 206.058 183.336 206.053 182.189 206.049C179.46 206.037 176.73 206.021 174 206C173.67 205.01 173.34 204.02 173 203C172.34 202.67 171.68 202.34 171 202C174.928 201.71 178.857 201.426 182.786 201.146C184.766 201.003 186.745 200.857 188.725 200.711C196.166 200.183 203.54 199.86 211 200Z" fill="#141242"/>
<path d="M141 84C152.693 82.8536 163.947 89.0361 173 96C176.225 99.0913 178.58 101.739 180 106C180.04 108.333 180.044 110.667 180 113C179.425 112.276 178.85 111.551 178.258 110.805C168.449 98.6202 157.052 87.709 141 85C141 84.67 141 84.34 141 84Z" fill="#D25385"/>
<path d="M221 123C221.99 123 222.98 123 224 123C224 124.65 224 126.3 224 128C224.66 126.68 225.32 125.36 226 124C226.99 124 227.98 124 229 124C228.496 128.409 227.038 130.788 224 134C219.324 136.885 214.316 136.876 209 136C206.138 134.441 203.898 132.663 202 130C202 129.01 202 128.02 202 127C202.99 127.33 203.98 127.66 205 128C205.33 128 205.66 128 206 128C206 127.34 206 126.68 206 126C206.66 126 207.32 126 208 126C208.412 126.825 208.825 127.65 209.25 128.5C210.792 131.323 210.792 131.323 214 131.562C217.047 131.276 217.047 131.276 218.812 129.25C219.929 127.135 220.581 125.345 221 123Z" fill="#E5E5E9"/>
<path d="M172 160C177.185 163.162 179.976 167.674 181.75 173.438C182.095 176.976 182.06 180.445 182 184C180.855 181.711 179.844 179.552 179 177.125C176.421 173.096 173.417 171.558 169.277 169.297C167 168 167 168 165 166C164.875 163.375 164.875 163.375 165 161C167.609 159.696 169.097 159.662 172 160Z" fill="#100E44"/>
<path d="M262 105C262.33 105.99 262.66 106.98 263 108C263.66 108 264.32 108 265 108C265 115.26 265 122.52 265 130C264.34 130 263.68 130 263 130C262.67 131.98 262.34 133.96 262 136C260.68 136 259.36 136 258 136C258.278 131.77 258.575 127.541 258.875 123.312C258.954 122.114 259.032 120.916 259.113 119.682C259.197 118.525 259.281 117.368 259.367 116.176C259.441 115.113 259.514 114.05 259.589 112.954C259.998 110.014 260.776 107.693 262 105Z" fill="#DF4584"/>
<path d="M200 160C200.66 160.66 201.32 161.32 202 162C201.9 164.995 201.064 165.939 198.875 168C196.697 169.515 194.711 170.677 192.375 171.875C188.632 174.232 187.57 175.938 186 180C185.67 180 185.34 180 185 180C184.174 172.569 186.495 167.898 191 162C194.452 159.698 195.947 159.655 200 160Z" fill="#100E42"/>
<path d="M117 85C116.374 85.3478 115.749 85.6956 115.104 86.054C112.274 87.6328 109.449 89.2225 106.625 90.8125C105.64 91.3597 104.655 91.9069 103.641 92.4707C102.7 93.0024 101.759 93.5342 100.789 94.082C99.9198 94.5691 99.0504 95.0561 98.1548 95.5579C95.7403 96.9747 95.7403 96.9747 94 100C93.5457 106.319 93.5457 106.319 96 112C95.01 112 94.02 112 93 112C93 111.34 93 110.68 93 110C92.34 110 91.68 110 91 110C90.67 106.7 90.34 103.4 90 100C89.01 100 88.02 100 87 100C93.508 92.4584 106.347 81.7902 117 85Z" fill="#EDC05C"/>
<path d="M218 85C232.44 84.5901 243.8 84.4631 256 93C256.99 93.66 257.98 94.32 259 95C259 95.99 259 96.98 259 98C258.34 98 257.68 98 257 98C257 99.32 257 100.64 257 102C257.66 102 258.32 102 259 102C259.495 105.96 259.495 105.96 260 110C258.394 107.591 257.161 105.322 255.875 102.75C251.798 95.4397 245.931 90.5969 238.074 87.7109C231.504 86.1915 224.719 86.1559 218 86C218 85.67 218 85.34 218 85Z" fill="#CD5584"/>
<path d="M50 99.875C51.0106 99.8724 52.0213 99.8698 53.0625 99.8672C55.8171 99.9917 58.3184 100.379 61 101C61 101.33 61 101.66 61 102C59.5324 102.039 59.5324 102.039 58.0352 102.078C47.466 102.535 39.5232 104.051 31.5078 111.34C29.1054 113.985 27.5948 116.81 26 120C25.67 119.01 25.34 118.02 25 117C26.8125 114 26.8125 114 29 111C29.66 110.01 30.32 109.02 31 108C29.68 108.33 28.36 108.66 27 109C33.3846 101.841 40.6893 99.8512 50 99.875Z" fill="#E2B957"/>
<path d="M255.688 150.75C256.781 150.833 257.874 150.915 259 151C257.606 156.268 254.265 158.927 250 162C246.562 163.875 246.562 163.875 244 165C244 165.33 244 165.66 244 166C241.69 166 239.38 166 237 166C236.67 165.34 236.34 164.68 236 164C236.519 163.769 237.039 163.539 237.574 163.301C243.031 160.749 247.214 158.004 250.375 152.688C252 151 252 151 255.688 150.75Z" fill="#C85180"/>
<path d="M131 125C131.717 125.146 132.433 125.291 133.172 125.441C134.991 125.801 136.814 126.143 138.641 126.465C139.502 126.621 140.363 126.777 141.25 126.938C142.557 127.168 142.557 127.168 143.891 127.402C144.587 127.6 145.283 127.797 146 128C146.33 128.66 146.66 129.32 147 130C146.34 130 145.68 130 145 130C144.567 130.959 144.567 130.959 144.125 131.938C143 134 143 134 141 135C137.418 135.389 135.637 135.436 132.625 133.375C130.587 130.396 130.678 128.537 131 125Z" fill="#191742"/>
<path d="M216 121C218.64 121.33 221.28 121.66 224 122C223.01 122.33 222.02 122.66 221 123C220.845 124.392 220.845 124.392 220.688 125.812C220 129 220 129 218.812 130.875C216.1 132.559 214.121 132.39 211 132C209.125 130.75 209.125 130.75 208 129C208 127.68 208 126.36 208 125C211.465 124.505 211.465 124.505 215 124C215.33 123.01 215.66 122.02 216 121Z" fill="#13132D"/>
<path d="M248 168C252.851 171.847 254.529 177.275 255.287 183.272C255.401 185.565 255.416 187.83 255.375 190.125C255.364 191.347 255.364 191.347 255.353 192.594C254.916 212.084 254.916 212.084 250 217C250.14 214.187 250.287 211.375 250.438 208.562C250.496 207.359 250.496 207.359 250.557 206.131C250.887 200.113 250.887 200.113 252 199C252.099 197.57 252.131 196.136 252.133 194.703C252.134 193.827 252.135 192.95 252.137 192.047C252.133 191.124 252.129 190.201 252.125 189.25C252.129 188.342 252.133 187.435 252.137 186.5C252.135 185.618 252.134 184.737 252.133 183.828C252.131 182.62 252.131 182.62 252.129 181.388C251.992 178.847 251.555 176.481 251 174C250.34 174 249.68 174 249 174C248.67 172.02 248.34 170.04 248 168Z" fill="#AF4D73"/>
<path d="M120 151C120.33 151.99 120.66 152.98 121 154C122.865 155.018 122.865 155.018 125.062 155.688C125.796 155.939 126.529 156.19 127.285 156.449C127.851 156.631 128.417 156.813 129 157C124.923 158.685 122.169 157.169 118.25 155.563C117.08 155.089 115.909 154.616 114.703 154.129C113.811 153.756 112.919 153.384 112 153C117.334 158.834 123.309 162.885 131 165C129.35 166.32 127.7 167.64 126 169C125.67 167.68 125.34 166.36 125 165C124.01 165 123.02 165 122 165C122 164.34 122 163.68 122 163C121.01 163 120.02 163 119 163C119 162.34 119 161.68 119 161C118.01 161 117.02 161 116 161C116 160.34 116 159.68 116 159C115.01 159 114.02 159 113 159C111 156 111 156 111 152C116.53 149.389 116.53 149.389 120 151Z" fill="#EDC562"/>
<path d="M201 255C201.66 255 202.32 255 203 255C202.762 259.042 202.369 261.48 200 264.812C193.419 269.611 185.301 269.275 177.438 269.125C176.524 269.116 175.611 269.107 174.67 269.098C172.446 269.074 170.223 269.042 168 269C168 268.67 168 268.34 168 268C169.314 267.951 170.627 267.902 171.98 267.852C173.716 267.777 175.452 267.701 177.188 267.625C178.052 267.594 178.916 267.563 179.807 267.531C186.902 267.205 191.182 266.261 196.25 261C196.936 260.299 197.622 259.598 198.328 258.875C200.061 257.096 200.061 257.096 201 255Z" fill="#A56264"/>
<path d="M196 228C195 231 195 231 192.938 232.688C189.224 234.347 185.968 234.727 182 234C179.64 232.892 178.038 231.682 176 230C176 229.67 176 229.34 176 229C178.583 228.832 181.167 228.665 183.75 228.5C184.48 228.452 185.209 228.405 185.961 228.355C189.318 228.142 192.634 228 196 228Z" fill="#EEC25B"/>
<path d="M19 132C19.66 132.33 20.32 132.66 21 133C21 136.63 21 140.26 21 144C21.99 144 22.98 144 24 144C24.3655 145.414 24.717 146.831 25.0625 148.25C25.2597 149.039 25.457 149.828 25.6602 150.641C26.015 153.104 25.7688 154.656 25 157C24.34 156.34 23.68 155.68 23 155C23 153.68 23 152.36 23 151C22.34 151 21.68 151 21 151C18.6057 144.971 17.2432 139.52 18 133C18.33 132.67 18.66 132.34 19 132Z" fill="#F7C043"/>
<path d="M241 224C243.621 224 245.509 224.313 248 225C247.072 226.963 246.133 228.92 245.187 230.875C244.665 231.966 244.143 233.056 243.605 234.18C242 237 242 237 239 239C237.904 233.055 237.59 229.32 241 224Z" fill="#D14E83"/>
<path d="M171 202C177.93 202 184.86 202 192 202C192 202.99 192 203.98 192 205C188.812 206.594 185.371 206.102 181.875 206.062C181.121 206.058 180.367 206.053 179.59 206.049C177.727 206.037 175.863 206.019 174 206C173.67 205.01 173.34 204.02 173 203C172.34 202.67 171.68 202.34 171 202Z" fill="#06023A"/>
<path d="M91 99C90.67 101.31 90.34 103.62 90 106C87.9245 106.553 86.1563 107 84 107C83.9111 110.199 84.0894 112.927 85 116C84.01 116.66 83.02 117.32 82 118C81.2762 120.059 81.2762 120.059 81 122C80.34 122 79.68 122 79 122C79.5703 114.301 81.6932 107.46 86 101C89.4737 99 89.4737 99 91 99Z" fill="#E9B645"/>
<path d="M257 134C259 137 259 137 258.625 140.188C258.316 141.58 258.316 141.58 258 143C257.01 143 256.02 143 255 143C255 144.65 255 146.3 255 148C253.35 148.66 251.7 149.32 250 150C250 150.33 250 150.66 250 151C247.69 151 245.38 151 243 151C242.67 150.34 242.34 149.68 242 149C243.031 148.649 244.062 148.299 245.125 147.938C250.585 145.601 253.897 141.356 256.375 136.062C256.581 135.382 256.787 134.701 257 134Z" fill="#D84E86"/>
<path d="M144 255C145.675 255.286 147.344 255.618 149 256C149.33 256.99 149.66 257.98 150 259C150.99 259.33 151.98 259.66 153 260C153 261.65 153 263.3 153 265C150.69 264.01 148.38 263.02 146 262C145.67 262.99 145.34 263.98 145 265C143.02 264.01 141.04 263.02 139 262C140.32 261.67 141.64 261.34 143 261C142.979 260.196 142.959 259.391 142.938 258.562C143 256 143 256 144 255Z" fill="#EDB05E"/>
<path d="M35 170C42.177 170 45.7251 172.715 51.3008 177.055C54.7613 179.549 57.9388 180.774 62 182C62 182.66 62 183.32 62 184C52.2821 182.876 42.5381 177.102 35 171C35 170.67 35 170.34 35 170Z" fill="#DEB555"/>
<path d="M90 220C91.32 220 92.64 220 94 220C94 220.66 94 221.32 94 222C94.99 221.34 95.98 220.68 97 220C97.99 220 98.98 220 100 220C102 223 102 223 101.625 225.188C101.419 225.786 101.213 226.384 101 227C100.34 226.01 99.68 225.02 99 224C99 226.64 99 229.28 99 232C94.1655 228.777 92.2478 225.174 90 220Z" fill="#E9B855"/>
<path d="M153 261C154.145 261.248 154.145 261.248 155.312 261.5C158.036 262.091 158.036 262.091 161 262C162.671 262.311 164.339 262.641 166 263C166 263.99 166 264.98 166 266C167.65 265.67 169.3 265.34 171 265C171.33 265.66 171.66 266.32 172 267C165.412 268.586 161.944 267.489 156.004 264.324C154 263 154 263 153 261ZM170 261C172.475 261.99 172.475 261.99 175 263C173.02 263.99 173.02 263.99 171 265C170.67 263.68 170.34 262.36 170 261Z" fill="#EDBB46"/>
<path d="M297 122C301.323 128.485 300.71 135.961 299.398 143.422C298.019 149.248 298.019 149.248 297 152C296.34 152.33 295.68 152.66 295 153C294.856 152.257 294.711 151.515 294.562 150.75C294.098 148.48 293.581 146.242 293 144C294.65 144 296.3 144 298 144C297.67 136.74 297.34 129.48 297 122Z" fill="#AB466E"/>
<path d="M141 84C149.305 83.1858 157.549 85.8946 164.391 90.668C164.922 91.1075 165.453 91.5471 166 92C165.01 92.495 165.01 92.495 164 93C164.33 93.66 164.66 94.32 165 95C160.202 93.1916 155.705 90.8562 151.172 88.4785C147.797 86.7505 144.765 85.5205 141 85C141 84.67 141 84.34 141 84Z" fill="#C25981"/>
<path d="M262 105C262.33 105.99 262.66 106.98 263 108C263.66 108 264.32 108 265 108C265 109.65 265 111.3 265 113C264.01 113.495 264.01 113.495 263 114C262.576 116.848 262.25 119.636 262 122.5C261.75 125.364 261.424 128.152 261 131C260.34 131.33 259.68 131.66 259 132C259.11 128.437 259.241 124.875 259.375 121.312C259.406 120.305 259.437 119.298 259.469 118.26C259.507 117.283 259.546 116.307 259.586 115.301C259.617 114.405 259.649 113.51 259.681 112.587C260.027 109.784 260.847 107.567 262 105Z" fill="#D64E86"/>
<path d="M117 189C117.33 189 117.66 189 118 189C118.037 189.92 118.075 190.841 118.113 191.789C118.69 202.903 120.33 213.434 124 224C120.229 222.114 119.507 217.124 118.109 213.348C115.874 206.603 113.708 195.584 117 189Z" fill="#EEC56B"/>
<path d="M160 147C160.33 147 160.66 147 161 147C161 149.64 161 152.28 161 155C161.66 155.33 162.32 155.66 163 156C163 158.64 163 161.28 163 164C163.66 163.67 164.32 163.34 165 163C165.66 164.65 166.32 166.3 167 168C162.268 168 161.482 166.932 158 164C157.34 164 156.68 164 156 164C155.34 163.01 154.68 162.02 154 161C154.33 160.01 154.66 159.02 155 158C155.99 159.485 155.99 159.485 157 161C157.99 161.33 158.98 161.66 160 162C160 157.05 160 152.1 160 147Z" fill="#E5C782"/>
<path d="M218 252C218.33 253.32 218.66 254.64 219 256C217.734 257.151 216.462 258.296 215.188 259.438C214.126 260.395 214.126 260.395 213.043 261.371C211 263 211 263 208 264C209.232 258.29 211.125 252 218 252Z" fill="#CC5081"/>
<path d="M143 200C145 201 145 201 148 203C153.193 205.577 158.387 207.567 164 209C164 209.33 164 209.66 164 210C156.032 209.561 148.227 208.613 141 205C141.66 203.35 142.32 201.7 143 200Z" fill="#2A2953"/>
<path d="M176 164C181.556 170.112 182.278 176.07 182 184C180.82 181.64 179.689 179.292 178.625 176.875C176.953 173.916 176.141 173.083 173 172C173.33 171.01 173.66 170.02 174 169C174.66 169 175.32 169 176 169C176 167.35 176 165.7 176 164Z" fill="#2B2A4B"/>
<path d="M28.6992 107.781C29.8381 107.89 29.8381 107.89 31 108C29.4678 111.447 27.5943 114.253 25 117C23.68 117 22.36 117 21 117C21.0619 117.784 21.1238 118.567 21.1875 119.375C21.1256 120.241 21.0637 121.108 21 122C20.01 122.66 19.02 123.32 18 124C19.0843 117.928 21.4301 108.37 28.6992 107.781Z" fill="#EEBA45"/>
<path d="M117 85C114.942 86.1542 112.879 87.2984 110.812 88.4375C109.664 89.0756 108.515 89.7137 107.332 90.3711C104.434 91.7876 102.168 92.5764 99 93C98.67 92.01 98.34 91.02 98 90C99.9369 89.1862 101.875 88.374 103.812 87.5625C104.891 87.11 105.97 86.6576 107.082 86.1914C113.023 83.7657 113.023 83.7657 117 85Z" fill="#D8B262"/>
<path d="M272 110C280.143 109.303 286.153 110.351 293 115C293.33 115.66 293.66 116.32 294 117C287.752 117.424 285.869 117.037 281 113C278.039 112.087 275.055 111.506 272 111C272 110.67 272 110.34 272 110Z" fill="#C94E7F"/>
<path d="M259 96C261.95 99.4586 264.227 102.8 266 107C265.67 107.66 265.34 108.32 265 109C264.01 108.34 263.02 107.68 262 107C261.01 108.485 261.01 108.485 260 110C259.67 107.36 259.34 104.72 259 102C258.34 102 257.68 102 257 102C257 100.68 257 99.36 257 98C257.66 98 258.32 98 259 98C259 97.34 259 96.68 259 96Z" fill="#CA477B"/>
<path d="M154 140C154.66 140 155.32 140 156 140C156 140.99 156 141.98 156 143C157.32 143 158.64 143 160 143C160 142.01 160 141.02 160 140C161.65 140 163.3 140 165 140C165 140.66 165 141.32 165 142C165.66 142.33 166.32 142.66 167 143C166.01 143.66 165.02 144.32 164 145C163.01 146.485 163.01 146.485 162 148C162 146.35 162 144.7 162 143C160.952 143.559 160.952 143.559 159.883 144.129C158.973 144.602 158.063 145.075 157.125 145.562C155.768 146.276 155.768 146.276 154.383 147.004C153.596 147.333 152.81 147.661 152 148C151.34 147.67 150.68 147.34 150 147C150.66 146.216 151.32 145.433 152 144.625C154.202 142.285 154.202 142.285 154 140Z" fill="#291405"/>
<path d="M24 120C25.1467 123.44 24.6971 124.514 24 128C23.9319 130.781 23.9052 133.534 23.9375 136.312C23.942 137.053 23.9465 137.794 23.9512 138.557C23.9629 140.371 23.9808 142.186 24 144C23.01 144 22.02 144 21 144C20.9184 141.312 20.8592 138.626 20.8125 135.938C20.7874 135.185 20.7622 134.433 20.7363 133.658C20.6672 128.334 21.5933 124.757 24 120Z" fill="#EBC364"/>
<path d="M118.375 112.438C119.765 112.516 119.765 112.516 121.184 112.596C123.456 112.725 125.728 112.859 128 113C128 113.33 128 113.66 128 114C126.532 114.056 126.532 114.056 125.035 114.113C117.552 114.489 111.014 115.17 104 118C104 117.34 104 116.68 104 116C104.66 116 105.32 116 106 116C106 115.34 106 114.68 106 114C104.68 113.67 103.36 113.34 102 113C107.542 111.757 112.759 112.089 118.375 112.438Z" fill="#D6C38B"/>
<path d="M173.766 200.902C174.655 200.906 175.545 200.909 176.461 200.912C177.842 200.925 177.842 200.925 179.25 200.938C180.186 200.942 181.122 200.947 182.086 200.951C184.391 200.963 186.695 200.979 189 201C189 201.33 189 201.66 189 202C181.08 202.495 181.08 202.495 173 203C173.33 203.99 173.66 204.98 174 206C170.7 206 167.4 206 164 206C164.66 205.34 165.32 204.68 166 204C165.67 203.34 165.34 202.68 165 202C167.997 201.13 170.65 200.882 173.766 200.902Z" fill="#34335D"/>
<path d="M187 168C189.64 168.33 192.28 168.66 195 169C193.343 170.657 191.683 172.307 190 173.938C188.136 175.86 186.554 177.824 185 180C184.714 171.429 184.714 171.429 187 168Z" fill="#0E0E3B"/>
<path d="M259 151C259.33 151.99 259.66 152.98 260 154C258.672 156.227 258.672 156.227 256.75 158.625C256.126 159.422 255.502 160.218 254.859 161.039C253 163 253 163 250 164C248.315 165.997 248.315 165.997 247 168C245.68 166.68 244.36 165.36 243 164C243.652 163.732 244.305 163.464 244.977 163.188C251.537 160.246 255.255 157.136 259 151Z" fill="#1D040D"/>
<path d="M290 121C290.99 121 291.98 121 293 121C295.135 128.739 295.205 136 295 144C294.34 144 293.68 144 293 144C292.927 142.641 292.927 142.641 292.852 141.254C292.424 134.291 291.747 127.756 290 121Z" fill="#D05488"/>
<path d="M219 125C219 125.66 219 126.32 219 127C217.68 127.33 216.36 127.66 215 128C215.33 128.33 215.66 128.66 216 129C216.33 129.99 216.66 130.98 217 132C211.5 132.367 211.5 132.367 209.125 130.625C208 129 208 129 208 127C209.266 126.468 210.538 125.95 211.812 125.438C212.52 125.147 213.228 124.857 213.957 124.559C216 124 216 124 219 125Z" fill="#35335E"/>
<path d="M117 246C119.596 246.937 121.745 247.803 123.938 249.5C126.045 251.2 126.045 251.2 129.188 252C130.58 252.495 130.58 252.495 132 253C132.33 253.99 132.66 254.98 133 256C135.498 257.699 135.498 257.699 138 259C137.67 259.66 137.34 260.32 137 261C121.483 250.81 121.483 250.81 117 247C117 246.67 117 246.34 117 246Z" fill="#DCB457"/>
<path d="M112 141C112.835 142.083 112.835 142.083 113.688 143.188C115.979 145.975 118.415 148.486 121 151C115.059 149.997 110.798 148.691 106 145C106.99 144.67 107.98 144.34 109 144C109.66 144.33 110.32 144.66 111 145C111.33 143.68 111.66 142.36 112 141Z" fill="#211002"/>
<path d="M203 255C202.25 261.75 202.25 261.75 200 264C199.01 264 198.02 264 197 264C196.67 264.66 196.34 265.32 196 266C195.01 266 194.02 266 193 266C194.352 263.061 195.899 260.708 198 258.25C198.516 257.636 199.031 257.023 199.562 256.391C201 255 201 255 203 255Z" fill="#C86A90"/>
<path d="M213 204C213.66 204.33 214.32 204.66 215 205C214 208 214 208 211.812 209.125C206.137 210.891 200.89 211.102 195 211C195 210.67 195 210.34 195 210C195.713 209.818 196.426 209.636 197.16 209.449C203.741 207.727 203.741 207.727 210.062 205.25C211.032 204.838 212.001 204.425 213 204Z" fill="#222041"/>
<path d="M104 231C104.99 231 105.98 231 107 231C107 231.99 107 232.98 107 234C108.32 234.33 109.64 234.66 111 235C111 236.32 111 237.64 111 239C111.598 239.062 112.196 239.124 112.812 239.188C115.871 240.324 116.55 242.173 118 245C115 245 115 245 112.809 242.953C111.635 241.615 111.635 241.615 110.438 240.25C109.652 239.368 108.867 238.487 108.059 237.578C106.328 235.411 105.093 233.529 104 231Z" fill="#E0B553"/>
<path d="M97 166C97.33 166.66 97.66 167.32 98 168C97.505 168.454 97.01 168.907 96.5 169.375C94.7739 170.876 94.7739 170.876 95 173C93.68 173.33 92.36 173.66 91 174C91 175.98 91 177.96 91 180C89.02 180.99 89.02 180.99 87 182C88.6772 175.864 90.5336 171.581 95 167C95.66 166.67 96.32 166.34 97 166Z" fill="#DEB24D"/>
<path d="M218 85C221.167 84.9412 224.333 84.9061 227.5 84.875C228.387 84.8582 229.274 84.8415 230.188 84.8242C235.823 84.7828 240.593 85.3956 246 87C245.67 87.66 245.34 88.32 245 89C241.531 88.5418 238.326 88.1087 235 87C233.666 86.856 232.328 86.7541 230.988 86.6836C229.852 86.6207 229.852 86.6207 228.693 86.5566C227.515 86.4977 227.515 86.4977 226.312 86.4375C225.515 86.3943 224.718 86.3511 223.896 86.3066C221.931 86.2007 219.966 86.0999 218 86C218 85.67 218 85.34 218 85Z" fill="#B38093"/>
<path d="M146 81C146 81.66 146 82.32 146 83C146.66 83.33 147.32 83.66 148 84C139.75 83.67 131.5 83.34 123 83C123 82.67 123 82.34 123 82C125.521 81.8305 128.041 81.6644 130.562 81.5C131.267 81.4523 131.971 81.4046 132.697 81.3555C137.143 81.0687 141.545 80.9532 146 81Z" fill="#3B222A"/>
<path d="M228 230C229.32 230.66 230.64 231.32 232 232C232.492 239.262 232.492 239.262 230 243C229.34 243.66 228.68 244.32 228 245C228.507 241.281 229.116 238.265 231 235C229.68 235.33 228.36 235.66 227 236C227.33 234.02 227.66 232.04 228 230Z" fill="#C25681"/>
<path d="M247 197C249.438 200.657 249.239 202.69 249 207C248.67 207.33 248.34 207.66 248 208C247.959 210 247.957 212 248 214C247.01 214.33 246.02 214.66 245 215C245.512 208.971 246.07 202.98 247 197Z" fill="#D55C8F"/>
<path d="M150.562 156.938C151.697 156.958 152.831 156.979 154 157C150.182 160.818 145.632 160.162 140.438 160.188C139.765 160.2 139.093 160.212 138.4 160.225C134.701 160.236 133.16 160.107 130 158C131.143 158.012 132.287 158.023 133.465 158.035C134.956 158.045 136.447 158.054 137.938 158.062C138.692 158.071 139.447 158.079 140.225 158.088C142.15 158.097 144.075 158.052 146 158C147 157 147 157 150.562 156.938Z" fill="#EDCB7B"/>
<path d="M144 257C147.459 258.249 150.147 259.675 153 262C152.67 262.99 152.34 263.98 152 265C150.866 264.505 149.731 264.01 148.562 263.5C145.491 261.935 145.491 261.935 144 262C144 260.35 144 258.7 144 257Z" fill="#C15768"/>
<path d="M252 199C252.66 199.33 253.32 199.66 254 200C253.485 205.853 252.546 211.33 251 217C250.67 217 250.34 217 250 217C250.14 214.187 250.287 211.375 250.438 208.562C250.477 207.76 250.516 206.958 250.557 206.131C250.887 200.113 250.887 200.113 252 199Z" fill="#BC4E79"/>
<path d="M183 175C183.66 175 184.32 175 185 175C185.33 177.64 185.66 180.28 186 183C185.01 183.66 184.02 184.32 183 185C182.34 185.99 181.68 186.98 181 188C181.14 186.02 181.287 184.041 181.438 182.062C181.519 180.96 181.6 179.858 181.684 178.723C182 176 182 176 183 175Z" fill="#DBDAE3"/>
<path d="M295 117C296.375 119.563 296.375 119.563 297 122C296.01 122.495 296.01 122.495 295 123C294.67 122.01 294.34 121.02 294 120C292.35 120.33 290.7 120.66 289 121C288.34 119.68 287.68 118.36 287 117C289.989 115.506 291.85 116.081 295 117Z" fill="#CB497E"/>
<path d="M196 228C195.67 228.99 195.34 229.98 195 231C194.01 231.33 193.02 231.66 192 232C192 231.34 192 230.68 192 230C188.04 230 184.08 230 180 230C180 230.66 180 231.32 180 232C178.68 231.34 177.36 230.68 176 230C176 229.67 176 229.34 176 229C178.583 228.832 181.167 228.665 183.75 228.5C184.48 228.452 185.209 228.405 185.961 228.355C189.318 228.142 192.634 228 196 228Z" fill="#EACB78"/>
<path d="M214 209C214.99 209 215.98 209 217 209C217.188 211.375 217.188 211.375 217 214C216.01 214.66 215.02 215.32 214 216C213.01 215.67 212.02 215.34 211 215C211 215.66 211 216.32 211 217C210.34 216.67 209.68 216.34 209 216C210.522 213.371 211.844 211.156 214 209Z" fill="#0E0A40"/>
<path d="M82 156C84.8374 157.118 87.6419 158.28 90.4375 159.5C93.594 160.829 96.7373 161.965 100 163C100 163.33 100 163.66 100 164C94.7267 164.316 91.488 163.829 87 161C84.125 158.312 84.125 158.312 82 156Z" fill="#DDB559"/>
<path d="M82 110C83.5 111.312 83.5 111.312 85 113C85 113.99 85 114.98 85 116C84.01 116.66 83.02 117.32 82 118C81.2762 120.059 81.2762 120.059 81 122C80.34 122 79.68 122 79 122C79.8571 113.429 79.8571 113.429 82 110Z" fill="#EBBA50"/>
<path d="M29 106C31.8672 106.573 32.8615 106.861 35 109C34.2575 109.516 33.515 110.031 32.75 110.562C29.4637 113.475 28.0124 116.124 26 120C25.67 119.01 25.34 118.02 25 117C26.8125 114 26.8125 114 29 111C29.66 110.01 30.32 109.02 31 108C29.68 108.33 28.36 108.66 27 109C27.66 108.01 28.32 107.02 29 106Z" fill="#EAC263"/>
<path d="M174 98C178.875 102.625 178.875 102.625 180 106C180.04 108.333 180.044 110.667 180 113C176.033 108.661 176.033 108.661 175.875 105.5C175.916 104.675 175.957 103.85 176 103C175.073 100.262 175.073 100.262 174 98Z" fill="#BC567E"/>
<path d="M44 100C45.8958 99.9728 47.7916 99.9535 49.6875 99.9375C50.7432 99.9259 51.799 99.9143 52.8867 99.9023C55.7241 99.9913 58.2439 100.351 61 101C61 101.33 61 101.66 61 102C55.06 102.33 49.12 102.66 43 103C43.33 102.01 43.66 101.02 44 100Z" fill="#C9AD79"/>
<path d="M177 257C178.65 257.33 180.3 257.66 182 258C182 258.66 182 259.32 182 260C182.99 260.33 183.98 260.66 185 261C184.01 261.495 184.01 261.495 183 262C180.875 261.062 180.875 261.062 179 260C179.33 261.98 179.66 263.96 180 266C178.68 266 177.36 266 176 266C176 265.34 176 264.68 176 264C176.66 264 177.32 264 178 264C177.67 261.69 177.34 259.38 177 257Z" fill="#F1CB6C"/>
<path d="M144 201C145.751 201.284 147.501 201.577 149.25 201.875C150.712 202.119 150.712 202.119 152.203 202.367C154.773 202.949 156.721 203.708 159 205C158.34 205 157.68 205 157 205C157 205.66 157 206.32 157 207C152.14 206.393 148.259 204.272 144 202C144 201.67 144 201.34 144 201Z" fill="#C7C8DB"/>
<path d="M120 170C121.65 170 123.3 170 125 170C124.21 171.917 123.418 173.834 122.625 175.75C122.184 176.817 121.743 177.885 121.289 178.984C120.267 181.376 119.198 183.694 118 186C118.667 180.667 119.333 175.333 120 170Z" fill="#EAC467"/>
<path d="M155 142C152.525 145.465 152.525 145.465 150 149C149.34 148.67 148.68 148.34 148 148C148 147.34 148 146.68 148 146C147.01 146 146.02 146 145 146C145 145.34 145 144.68 145 144C146.288 143.47 147.58 142.951 148.875 142.437C149.594 142.147 150.314 141.857 151.055 141.559C153 141 153 141 155 142Z" fill="#CDA953"/>
<path d="M203 200C205.64 200 208.28 200 211 200C211.33 200.99 211.66 201.98 212 203C209.043 204.478 206.258 204.06 203 204C202.67 203.34 202.34 202.68 202 202C202.33 201.34 202.66 200.68 203 200Z" fill="#0A073D"/>
<path d="M78 122C78.33 122 78.66 122 79 122C79.33 125.3 79.66 128.6 80 132C80.33 132 80.66 132 81 132C81 135.3 81 138.6 81 142C78.1834 139.183 78.0105 137.384 77.9023 133.426C77.909 132.055 77.9209 130.684 77.9375 129.312C77.942 128.611 77.9465 127.909 77.9512 127.186C77.9629 125.457 77.9809 123.728 78 122Z" fill="#BC933E"/>
<path d="M104 123C104.33 123.66 104.66 124.32 105 125C104.066 127.031 103.068 129.035 102 131C102.66 131.33 103.32 131.66 104 132C103.67 133.32 103.34 134.64 103 136C103 135.01 103 134.02 103 133C102.34 133 101.68 133 101 133C100.67 133.99 100.34 134.98 100 136C99.67 136 99.34 136 99 136C99.45 130.375 100.684 127.385 104 123Z" fill="#301E08"/>
<path d="M170 261C172.475 261.99 172.475 261.99 175 263C173.02 263.99 173.02 263.99 171 265C170.67 263.68 170.34 262.36 170 261ZM161 265C164.3 265 167.6 265 171 265C171.33 265.66 171.66 266.32 172 267C170.742 267.186 169.484 267.371 168.188 267.562C167.126 267.719 167.126 267.719 166.043 267.879C164 268 164 268 161 267C161 266.34 161 265.68 161 265Z" fill="#E1B755"/>
<path d="M214 198C214 199.32 214 200.64 214 202C214.99 202.33 215.98 202.66 217 203C216.01 203.495 216.01 203.495 215 204C212.875 203.062 212.875 203.062 211 202C211 201.34 211 200.68 211 200C210.103 200.309 210.103 200.309 209.188 200.625C207 201 207 201 204 199C207.38 197.96 210.478 197.92 214 198Z" fill="#2E2D5C"/>
<path d="M292 145C292.99 145.66 293.98 146.32 295 147C295.188 150.625 295.188 150.625 295 154C293.35 154.33 291.7 154.66 290 155C290.66 151.7 291.32 148.4 292 145Z" fill="#D85187"/>
<path d="M172 264C173.32 264 174.64 264 176 264C176 264.66 176 265.32 176 266C177.32 266 178.64 266 180 266C180 266.66 180 267.32 180 268C176.04 268 172.08 268 168 268C169.32 266.68 170.64 265.36 172 264Z" fill="#F6C350"/>
<path d="M164 219C167.96 219.33 171.92 219.66 176 220C176 220.33 176 220.66 176 221C173.36 221 170.72 221 168 221C168 221.66 168 222.32 168 223C166.02 223 164.04 223 162 223C162.66 221.68 163.32 220.36 164 219Z" fill="#080637"/>
<path d="M225 196C227.097 198.36 227.969 199.546 228.188 202.75C228.126 203.493 228.064 204.235 228 205C227.34 205 226.68 205 226 205C223.812 202.688 223.812 202.688 222 200C222.33 199.01 222.66 198.02 223 197C223.66 196.67 224.32 196.34 225 196Z" fill="#27254E"/>
<path d="M82 142C82.33 142.66 82.66 143.32 83 144C84.32 144 85.64 144 87 144C87 146.31 87 148.62 87 151C82.2302 147.576 82.2302 147.576 81.125 144.812C81.0837 144.214 81.0425 143.616 81 143C81.33 142.67 81.66 142.34 82 142Z" fill="#EFBA4D"/>
<path d="M255 147C252.013 149.987 250.609 150.979 246.312 151.125C244.673 151.063 244.673 151.063 243 151C242.67 150.34 242.34 149.68 242 149C246.504 147.243 250.176 146.807 255 147Z" fill="#B95A80"/>
<path d="M261 136C261.684 137.766 261.684 137.766 262 140C260.785 141.922 260.785 141.922 259.062 143.75C258.497 144.364 257.931 144.977 257.348 145.609C256.681 146.298 256.681 146.298 256 147C255.67 145.68 255.34 144.36 255 143C255.99 143 256.98 143 258 143C257.938 142.216 257.876 141.433 257.812 140.625C257.874 139.759 257.936 138.892 258 138C258.99 137.34 259.98 136.68 261 136Z" fill="#C84F80"/>
<path d="M127 125C128.32 125 129.64 125 131 125C132.125 131.75 132.125 131.75 131 134C128.431 132.716 128.053 131.634 127 129C127 127.68 127 126.36 127 125Z" fill="#DEDEEB"/>
<path d="M130 222C130.66 222 131.32 222 132 222C132.66 223.98 133.32 225.96 134 228C133.34 228 132.68 228 132 228C132 229.32 132 230.64 132 232C130.68 232 129.36 232 128 232C127.67 230.68 127.34 229.36 127 228C127.99 228.495 127.99 228.495 129 229C129 229.66 129 230.32 129 231C129.66 231 130.32 231 131 231C130.67 228.03 130.34 225.06 130 222Z" fill="#EBC96C"/>
<path d="M253 151C254.98 151 256.96 151 259 151C257.694 154.918 256.169 157.326 253 160C252.34 160 251.68 160 251 160C251 159.01 251 158.02 251 157C251.99 157 252.98 157 254 157C254.33 156.01 254.66 155.02 255 154C255.33 153.34 255.66 152.68 256 152C255.01 151.67 254.02 151.34 253 151Z" fill="#A7486D"/>
<path d="M179 260C180.98 260.66 182.96 261.32 185 262C184.67 263.32 184.34 264.64 184 266C182.68 266 181.36 266 180 266C179.67 264.02 179.34 262.04 179 260Z" fill="#F7C046"/>
<path d="M211 256C211.33 256.66 211.66 257.32 212 258C212.99 258 213.98 258 215 258C215 258.66 215 259.32 215 260C212.69 261.32 210.38 262.64 208 264C209.875 257.125 209.875 257.125 211 256Z" fill="#B35076"/>
<path d="M175 256C176.65 256 178.3 256 180 256C179.01 256.33 178.02 256.66 177 257C177.33 259.31 177.66 261.62 178 264C175.562 263.625 175.562 263.625 173 263C172.67 262.34 172.34 261.68 172 261C172.99 261 173.98 261 175 261C175 259.35 175 257.7 175 256Z" fill="#FEF7D0"/>
<path d="M156 251C159.438 251.812 159.438 251.812 163 253C163.33 253.99 163.66 254.98 164 256C166.015 256.733 166.015 256.733 168 257C168 257.66 168 258.32 168 259C163.443 257.481 159.683 255.046 156 252C156 251.67 156 251.34 156 251Z" fill="#FDF6CC"/>
<path d="M129 222C130.858 225.135 131.201 227.375 131 231C130.34 231 129.68 231 129 231C127.02 227.535 127.02 227.535 125 224C125.99 224 126.98 224 128 224C128.33 223.34 128.66 222.68 129 222Z" fill="#FEF6C9"/>
<path d="M66 181C67.98 182.65 69.96 184.3 72 186C71.67 186.66 71.34 187.32 71 188C68.03 187.01 65.06 186.02 62 185C63.32 183.68 64.64 182.36 66 181Z" fill="#C8C7C2"/>
<path d="M112 153C115.3 153.99 118.6 154.98 122 156C121.01 156.66 120.02 157.32 119 158C119.33 158.66 119.66 159.32 120 160C117.05 158.631 114.475 157.122 112 155C112 154.34 112 153.68 112 153Z" fill="#FDF2C7"/>
<path d="M162 142C163.322 144.645 163.097 146.678 163.062 149.625C163.053 150.628 163.044 151.631 163.035 152.664C163.024 153.435 163.012 154.206 163 155C162.34 155 161.68 155 161 155C160.67 152.36 160.34 149.72 160 147C158.35 147 156.7 147 155 147C157.297 145.257 159.599 143.601 162 142Z" fill="#BC9B53"/>
<path d="M226 244C226.25 246.312 226.25 246.312 226 249C224 250.812 224 250.812 222 252C221.67 249.69 221.34 247.38 221 245C224 244 224 244 226 244Z" fill="#C94C7E"/>
<path d="M226 235C227.65 235 229.3 235 231 235C230.424 237.386 229.778 239.667 229 242C228.01 241.67 227.02 241.34 226 241C226 239.02 226 237.04 226 235Z" fill="#DC4984"/>
<path d="M51 178C51.7013 178.289 52.4025 178.577 53.125 178.875C56.0545 180.021 59.0092 181.026 62 182C62 182.66 62 183.32 62 184C57.1534 183.409 53.3925 182.021 49 180C49.66 179.34 50.32 178.68 51 178Z" fill="#CFB577"/>
<path d="M281 166C283.062 166.438 283.062 166.438 285 167C283.879 167.839 282.753 168.671 281.625 169.5C280.685 170.196 280.685 170.196 279.727 170.906C278 172 278 172 276 172C276 172.66 276 173.32 276 174C274.68 173.67 273.36 173.34 272 173C272.566 172.578 273.132 172.157 273.715 171.723C274.448 171.175 275.182 170.627 275.938 170.062C276.668 169.517 277.399 168.972 278.152 168.41C279.913 167.131 279.913 167.131 281 166Z" fill="#90526B"/>
<path d="M23 111C23.33 111 23.66 111 24 111C24 112.65 24 114.3 24 116C23.01 116.33 22.02 116.66 21 117C21.0619 117.784 21.1238 118.567 21.1875 119.375C21.1256 120.241 21.0637 121.108 21 122C20.01 122.66 19.02 123.32 18 124C19.0773 119.111 20.0309 115.131 23 111Z" fill="#E3B34F"/>
<path d="M176 164C180 168.75 180 168.75 180 171C177.69 171.33 175.38 171.66 173 172C173.33 171.01 173.66 170.02 174 169C174.66 169 175.32 169 176 169C176 167.35 176 165.7 176 164Z" fill="#201E4D"/>
<path d="M30 158C34.875 162.75 34.875 162.75 36 165C34.35 164.67 32.7 164.34 31 164C30.67 164.66 30.34 165.32 30 166C29.01 164.68 28.02 163.36 27 162C28.32 162.33 29.64 162.66 31 163C30.67 161.35 30.34 159.7 30 158Z" fill="#ECC364"/>
<path d="M160 140C161.65 140 163.3 140 165 140C165 140.66 165 141.32 165 142C165.66 142.33 166.32 142.66 167 143C166.01 143.66 165.02 144.32 164 145C163.01 146.485 163.01 146.485 162 148C162 146.35 162 144.7 162 143C161.01 143.495 161.01 143.495 160 144C160 142.68 160 141.36 160 140Z" fill="#23180C"/>
<path d="M238 231C238.99 231 239.98 231 241 231C241 231.66 241 232.32 241 233C241.99 233.33 242.98 233.66 244 234C242.35 235.65 240.7 237.3 239 239C238.67 236.36 238.34 233.72 238 231Z" fill="#B14C72"/>
<path d="M152 199C153.98 199 155.96 199 158 199C158 200.65 158 202.3 158 204C155.03 203.505 155.03 203.505 152 203C152 201.667 152 200.333 152 199Z" fill="#0C093E"/>
<path d="M220 193C220.33 193.66 220.66 194.32 221 195C220.34 195 219.68 195 219 195C218.67 195.99 218.34 196.98 218 198C216.68 197.67 215.36 197.34 214 197C214.33 196.67 214.66 196.34 215 196C214.34 195.34 213.68 194.68 213 194C215.463 192.769 217.28 192.928 220 193Z" fill="#323257"/>
<path d="M221 123C221.99 123 222.98 123 224 123C224 125.31 224 127.62 224 130C223.01 130.33 222.02 130.66 221 131C220.019 127.947 220.019 126.053 221 123Z" fill="#C9C9D4"/>
<path d="M281.625 107.875C283.296 107.937 283.296 107.937 285 108C285 108.66 285 109.32 285 110C285.99 110.33 286.98 110.66 288 111C285.278 112.361 283.817 111.704 280.875 111.062C279.965 110.868 279.055 110.673 278.117 110.473C277.419 110.317 276.72 110.161 276 110C278 108 278 108 281.625 107.875Z" fill="#2B0612"/>
<path d="M168 221C170.64 221 173.28 221 176 221C175.67 221.66 175.34 222.32 175 223C172.496 223.414 172.496 223.414 169.438 223.625C168.426 223.7 167.414 223.775 166.371 223.852C165.589 223.901 164.806 223.95 164 224C165.32 223.67 166.64 223.34 168 223C168 222.34 168 221.68 168 221Z" fill="#171549"/>
<path d="M253 205C255 208 255 208 254.863 210.191C254.682 210.974 254.5 211.756 254.312 212.562C254.144 213.348 253.975 214.133 253.801 214.941C253 217 253 217 250 219C250.99 214.38 251.98 209.76 253 205Z" fill="#2D0C18"/>
<path d="M158.688 207.437C160.178 207.869 160.178 207.869 161.699 208.309C162.838 208.651 162.838 208.651 164 209C164 209.33 164 209.66 164 210C162.228 209.886 160.458 209.758 158.688 209.625C157.701 209.555 156.715 209.486 155.699 209.414C153 209 153 209 150 207C153.632 205.789 155.065 206.372 158.688 207.437Z" fill="#4F4C64"/>
<path d="M166.125 200.875C167.074 200.916 168.022 200.957 169 201C168.01 201.66 167.02 202.32 166 203C167.32 203.66 168.64 204.32 170 205C166.625 205.125 166.625 205.125 163 205C162.34 204.34 161.68 203.68 161 203C163 201 163 201 166.125 200.875Z" fill="#040234"/>
<path d="M131 192C131 195.646 130.914 197.976 128.438 200.75C127.726 201.369 127.726 201.369 127 202C127.615 195.477 127.615 195.477 129.562 193.062C130.274 192.537 130.274 192.537 131 192Z" fill="#272646"/>
<path d="M259 149C259 149.66 259 150.32 259 151C256.03 151 253.06 151 250 151C249.67 150.34 249.34 149.68 249 149C252.576 147.762 255.337 148.251 259 149Z" fill="#290411"/>
<path d="M114 145C116.31 146.65 118.62 148.3 121 150C117.234 151.255 115.628 150.371 112 149C112.66 148.67 113.32 148.34 114 148C114 147.01 114 146.02 114 145Z" fill="#4A300A"/>
<path d="M131 124C133.97 124.33 136.94 124.66 140 125C140.33 125.99 140.66 126.98 141 128C137.442 127.39 134.317 126.422 131 125C131 124.67 131 124.34 131 124Z" fill="#020119"/>
<path d="M272 110C273.77 109.946 275.541 109.907 277.312 109.875C278.299 109.852 279.285 109.829 280.301 109.805C283 110 283 110 286 112C281.047 113.598 276.867 112.283 272 111C272 110.67 272 110.34 272 110Z" fill="#AE5676"/>
<path d="M163 92C168.538 92.6154 168.538 92.6154 170.875 94.5625C171.432 95.2741 171.432 95.2741 172 96C169.69 96 167.38 96 165 96C164.34 94.68 163.68 93.36 163 92Z" fill="#CB4B7C"/>
<path d="M141 84C149.571 83.7143 149.571 83.7143 153 86C153 86.66 153 87.32 153 88C147.06 86.515 147.06 86.515 141 85C141 84.67 141 84.34 141 84Z" fill="#C06C8A"/>
<path d="M57 145C57.33 145 57.66 145 58 145C58 148.96 58 152.92 58 157C57.67 157 57.34 157 57 157C56.67 154.69 56.34 152.38 56 150C55.01 150.495 55.01 150.495 54 151C55.875 146.125 55.875 146.125 57 145Z" fill="#D5D5D5"/>
<path d="M202 127C206 128.333 206.838 130.496 209 134C205.765 133.442 204.021 132.628 202 130C202 129.01 202 128.02 202 127Z" fill="#EFEDF2"/>
<path d="M97 222C97.66 222.33 98.32 222.66 99 223C99 225.97 99 228.94 99 232C97.68 231.01 96.36 230.02 95 229C95.66 226.69 96.32 224.38 97 222Z" fill="#B4904F"/>
<path d="M98 223C99.3756 224.29 100.708 225.627 102 227C102 227.66 102 228.32 102 229C101.34 229 100.68 229 100 229C99.67 229.99 99.34 230.98 99 232C98.67 229.03 98.34 226.06 98 223Z" fill="#271205"/>
<path d="M145 196C145.99 196.33 146.98 196.66 148 197C148.33 198.65 148.66 200.3 149 202C147.02 201.34 145.04 200.68 143 200C143.66 199.67 144.32 199.34 145 199C145 198.01 145 197.02 145 196Z" fill="#0E0C40"/>
<path d="M186 170C188 173 188 173 187.75 175.562C187 178 187 178 185 180C184.875 172.25 184.875 172.25 186 170Z" fill="#2B294A"/>
<path d="M36 165C38.0205 166.642 40.0204 168.309 42 170C42 170.33 42 170.66 42 171C39.69 170.67 37.38 170.34 35 170C35.66 169.67 36.32 169.34 37 169C36.67 167.68 36.34 166.36 36 165Z" fill="#F2C565"/>
<path d="M170 161C172.169 161.506 174 162 176 163C175.67 163.99 175.34 164.98 175 166C174.01 165.67 173.02 165.34 172 165C171.67 165.66 171.34 166.32 171 167C170.67 165.02 170.34 163.04 170 161Z" fill="#0A0A3C"/>
<path d="M113 141C115.535 142.014 116.771 142.615 118.188 145C118.456 145.66 118.724 146.32 119 147C119.33 147.66 119.66 148.32 120 149C117.138 147.717 114.975 146.469 113 144C113 143.01 113 142.02 113 141Z" fill="#E2B965"/>
<path d="M257 134C257.66 134.99 258.32 135.98 259 137C257.35 139.31 255.7 141.62 254 144C253.34 143.67 252.68 143.34 252 143C253.009 141.242 254.018 139.484 255.027 137.727C255.717 136.502 256.371 135.257 257 134Z" fill="#D65C8E"/>
<path d="M226 105C223.537 107.463 221.293 107.998 218 109C218 108.34 218 107.68 218 107C217.34 106.67 216.68 106.34 216 106C219.473 104.842 222.361 104.931 226 105Z" fill="#464646"/>
<path d="M103 92C100.614 93.8921 98.9282 95.0239 96 96C95.67 94.68 95.34 93.36 95 92C97.8618 90.5691 99.9338 91.4001 103 92Z" fill="#E8C16C"/>
<path d="M144 240C145.32 240 146.64 240 148 240C150.175 242.874 151 244.364 151 248C149.83 246.857 148.664 245.711 147.5 244.562C146.85 243.924 146.201 243.286 145.531 242.629C144 241 144 241 144 240Z" fill="#FFF9D8"/>
<path d="M45 174C47.4375 174.812 47.4375 174.812 50 176C50.33 176.99 50.66 177.98 51 179C49.35 178.67 47.7 178.34 46 178C45.67 176.68 45.34 175.36 45 174Z" fill="#E4C468"/>
<path d="M248 168C252.753 172.293 252.753 172.293 253 176C252.34 176.66 251.68 177.32 251 178C251 176.68 251 175.36 251 174C250.34 174 249.68 174 249 174C248.67 172.02 248.34 170.04 248 168Z" fill="#B54672"/>
<path d="M123 162C124.459 162.141 125.917 162.288 127.375 162.438C128.593 162.559 128.593 162.559 129.836 162.684C132 163 132 163 134 164C134 164.66 134 165.32 134 166C132.54 165.718 131.082 165.424 129.625 165.125C128.813 164.963 128.001 164.8 127.164 164.633C125 164 125 164 123 162Z" fill="#FBF5CF"/>
<path d="M92 163C93.98 163.66 95.96 164.32 98 165C96.68 166.32 95.36 167.64 94 169C93.34 168.34 92.68 167.68 92 167C92 165.68 92 164.36 92 163Z" fill="#261301"/>
<path d="M263 130C263.99 130 264.98 130 266 130C265.01 132.97 264.02 135.94 263 139C262.67 139 262.34 139 262 139C262.33 136.03 262.66 133.06 263 130Z" fill="#B34C75"/>
<path d="M133 127C134.98 127.495 134.98 127.495 137 128C136.188 129.938 136.188 129.938 135 132C134.01 132.33 133.02 132.66 132 133C132.33 131.02 132.66 129.04 133 127Z" fill="#1C1953"/>
<path d="M108 90C107 93 107 93 105.188 94.25C102.661 95.1164 101.478 94.8849 99 94C105.75 90 105.75 90 108 90Z" fill="#FDF8DF"/>
<path d="M196 261C197.32 261 198.64 261 200 261C200 261.66 200 262.32 200 263C199.01 263.33 198.02 263.66 197 264C196.67 264.66 196.34 265.32 196 266C195.01 266 194.02 266 193 266C194.875 262.125 194.875 262.125 196 261Z" fill="#D25B8B"/>
<path d="M153 261C154.145 261.248 154.145 261.248 155.312 261.5C158.036 262.091 158.036 262.091 161 262C161.33 262.66 161.66 263.32 162 264C159.75 264.75 159.75 264.75 157 265C154.688 263.062 154.688 263.062 153 261Z" fill="#E4B74E"/>
<path d="M276 148C276.66 148 277.32 148 278 148C277.744 150.343 277.407 152.678 277 155C276.01 155.495 276.01 155.495 275 156C274.958 153.667 274.959 151.333 275 149C275.33 148.67 275.66 148.34 276 148Z" fill="#393738"/>
<path d="M139 129C140.65 129 142.3 129 144 129C144 130.32 144 131.64 144 133C143.01 133.33 142.02 133.66 141 134C140.34 132.35 139.68 130.7 139 129Z" fill="#5A587A"/>
<path d="M216 126C217.32 126.66 218.64 127.32 220 128C219.01 128.99 218.02 129.98 217 131C215.68 130.34 214.36 129.68 213 129C213.99 128.01 214.98 127.02 216 126Z" fill="#0B0939"/>
</g>
<defs>
<clipPath id="clip0_1_2">
<rect width="320" height="320" rx="160" fill="white"/>
</clipPath>
</defs>
</svg>
