<?xml version="1.0" encoding="UTF-8"?>
<svg version="1.1" xmlns="http://www.w3.org/2000/svg" width="320" height="320">
<path d="M0 0 C105.6 0 211.2 0 320 0 C320 105.6 320 211.2 320 320 C214.4 320 108.8 320 0 320 C0 214.4 0 108.8 0 0 Z " fill="#020202" transform="translate(0,0)"/>
<path d="M0 0 C105.6 0 211.2 0 320 0 C320 105.6 320 211.2 320 320 C214.4 320 108.8 320 0 320 C0 214.4 0 108.8 0 0 Z M53 50 C52.20207031 50.73347656 51.40414062 51.46695313 50.58203125 52.22265625 C28.90017216 72.87040441 14.25751507 101.63432022 9 131 C8.82412354 131.95793457 8.64824707 132.91586914 8.46704102 133.90283203 C7.09360757 141.97244056 6.64881491 149.82141869 6.6875 158 C6.69313965 159.26384521 6.6987793 160.52769043 6.70458984 161.82983398 C7.24086205 203.73605538 23.94397379 241.07824489 53 271 C55.56193141 273.47671124 58.23309443 275.75578543 61 278 C61.89847656 278.74765625 62.79695313 279.4953125 63.72265625 280.265625 C96.70993184 306.78889589 137.55263342 317.58455631 179.375 313.25 C187.48226651 312.29385828 195.1848233 310.35446655 203 308 C204.26070312 307.66355469 205.52140625 307.32710938 206.8203125 306.98046875 C242.49261903 297.16980441 274.50176766 270.06277844 292.98486328 238.43212891 C301.29073215 223.69570313 307.51928081 208.55643679 311 192 C311.31904297 190.61748047 311.31904297 190.61748047 311.64453125 189.20703125 C318.92164318 156.27679093 313.08971553 120.81634839 298 91 C297.53255371 90.0733252 297.53255371 90.0733252 297.05566406 89.12792969 C278.9649385 53.99937793 246.48343677 26.41813258 209.11669922 13.66015625 C192.52141562 8.48441844 176.48881768 6.74565376 159.1875 6.6875 C158.41464661 6.68454926 157.64179321 6.68159851 156.84552002 6.67855835 C117.10246265 6.64410648 81.71178961 22.88592045 53 50 Z " fill="#FDFDFD" transform="translate(0,0)"/>
<path d="M0 0 C0.92353271 0.00749268 1.84706543 0.01498535 2.79858398 0.02270508 C19.07438809 0.27860046 34.43951218 4.12007656 46.3828125 15.92578125 C49.34337465 19.3346571 50.52339662 22.03094631 51.125 26.5 C50.5435227 31.48409112 48.31468402 33.92351517 44.6875 37.25 C40.76555416 39.21097292 36.94627626 38.98427177 32.6875 38.25 C27.80933229 36.37218995 23.26088642 33.74232351 18.66503906 31.27197266 C14.15130514 28.93931955 9.4110764 27.11080282 4.6875 25.25 C7.3275 27.56 9.9675 29.87 12.6875 32.25 C9.6875 33.25 9.6875 33.25 7.63671875 32.83203125 C-3.09496042 30.7141237 -16.76344692 30.48453399 -26.3125 36.25 C-24.6625 36.58 -23.0125 36.91 -21.3125 37.25 C-21.72242187 37.70890625 -22.13234375 38.1678125 -22.5546875 38.640625 C-23.09351562 39.25421875 -23.63234375 39.8678125 -24.1875 40.5 C-24.72117187 41.10328125 -25.25484375 41.7065625 -25.8046875 42.328125 C-28.56115481 45.84154966 -29.3125 47.68846308 -29.3125 52.25 C-28.9825 51.59 -28.6525 50.93 -28.3125 50.25 C-27.6525 50.25 -26.9925 50.25 -26.3125 50.25 C-26.22613281 50.92546875 -26.13976562 51.6009375 -26.05078125 52.296875 C-25.20466048 57.96233526 -25.20466048 57.96233526 -22.1875 62.6875 C-16.06639537 66.03526627 -16.06639537 66.03526627 -9.3125 67.25 C-9.8178125 66.85167969 -10.323125 66.45335937 -10.84375 66.04296875 C-11.4934375 65.51316406 -12.143125 64.98335938 -12.8125 64.4375 C-13.4621875 63.91542969 -14.111875 63.39335937 -14.78125 62.85546875 C-16.3125 61.25 -16.3125 61.25 -16.3125 58.25 C-15.42691406 58.4665625 -14.54132813 58.683125 -13.62890625 58.90625 C-0.59012616 61.83692274 12.98961817 63.49138611 25.6875 58.25 C24.6975 59.9 23.7075 61.55 22.6875 63.25 C25.88360552 63.25 27.10467626 62.70328458 29.875 61.25 C31.133125 60.59 32.39125 59.93 33.6875 59.25 C33.6875 62.88 33.6875 66.51 33.6875 70.25 C34.47125 69.280625 35.255 68.31125 36.0625 67.3125 C38.39608834 64.42621968 39.62705506 63.37050511 43.4375 62.9375 C47.45804653 63.32409101 49.51425517 64.83228965 52.6875 67.25 C55.3780528 66.02992056 55.3780528 66.02992056 57.6875 64.25 C62.68509352 63.86556973 65.69374226 64.14374398 69.6875 67.25 C71.5 69.4375 71.5 69.4375 72.6875 71.25 C71.27582253 65.98829306 68.93899768 62.52828642 65.6875 58.25 C67.91728906 58.77576079 69.88927066 59.33725218 72 60.25 C75.20660877 61.44315675 78.29874193 61.85132258 81.6875 62.25 C81.6875 61.59 81.6875 60.93 81.6875 60.25 C81.06875 60.146875 80.45 60.04375 79.8125 59.9375 C77.6875 59.25 77.6875 59.25 75.6875 56.25 C76.25146484 56.27094727 76.81542969 56.29189453 77.39648438 56.31347656 C79.99330249 56.39748501 82.58983362 56.44892229 85.1875 56.5 C86.5178125 56.55027344 86.5178125 56.55027344 87.875 56.6015625 C94.16712622 56.69409377 98.33513346 55.52310147 103.6875 52.25 C104.3475 51.92 105.0075 51.59 105.6875 51.25 C105.3575 52.9 105.0275 54.55 104.6875 56.25 C108.03986977 52.24878447 109.8324562 49.51843779 109.8125 44.25 C109.81507813 43.569375 109.81765625 42.88875 109.8203125 42.1875 C109.75381126 40.03125219 109.75381126 40.03125219 108.6875 37.25 C109.6775 36.92 110.6675 36.59 111.6875 36.25 C104.05447085 29.31666519 96.4854355 29.27404401 86.6875 29.25 C91.3125 24.375 91.3125 24.375 94.6875 23.25 C85.23190167 23.76575991 79.35176146 27.53991486 72.5625 34 C68.5436689 37.78649243 66.21824894 39.37023367 60.6875 39.25 C58.01303125 36.0406375 57.4225388 33.56187776 57.625 29.5 C58.8359829 21.0855415 63.3768986 15.96288269 70 10.9375 C83.0398253 2.01925436 96.43025221 0.38348865 111.9453125 2.74609375 C121.16240276 5.30318619 128.01901245 10.66439056 133.9375 18.0625 C136.09375253 21.98995997 136.38130481 24.8101697 136.6875 29.25 C137.450625 28.92 138.21375 28.59 139 28.25 C147.29286002 26.00108881 154.08791755 26.58421596 161.59375 30.8359375 C166.76482429 34.32834215 169.31280436 39.24317774 170.6875 45.25 C172.04519328 58.22147502 169.20024399 68.47770063 161.03125 78.609375 C156.81794035 83.35637054 152.89614688 87.36859185 146.6875 89.25 C146.6875 89.91 146.6875 90.57 146.6875 91.25 C144.02083333 91.91666667 141.35416667 92.58333333 138.6875 93.25 C137.93984375 93.43691406 137.1921875 93.62382812 136.421875 93.81640625 C135.84953125 93.95949219 135.2771875 94.10257812 134.6875 94.25 C135.09742188 93.53199219 135.50734375 92.81398438 135.9296875 92.07421875 C141.03840208 82.26010916 142.01896037 73.16563845 142.6875 62.25 C146.11186208 65.2336935 146.26531494 67.7748384 146.6875 72.25 C147.65354701 69.00684218 147.82169024 66.06491334 147.8125 62.6875 C147.81507813 61.73746094 147.81765625 60.78742188 147.8203125 59.80859375 C147.79520994 57.1287562 147.79520994 57.1287562 146.6875 54.25 C151.5625 56.125 151.5625 56.125 152.6875 57.25 C152.14691202 52.65500217 150.73246572 49.74057046 147.6875 46.25 C144.45114933 44.59880068 141.14015056 43.37013472 137.6875 42.25 C137.58953125 42.806875 137.4915625 43.36375 137.390625 43.9375 C135.4542006 53.81994178 132.05219881 60.32428934 123.6875 66.25 C122.6975 66.58 121.7075 66.91 120.6875 67.25 C123.6575 67.58 126.6275 67.91 129.6875 68.25 C128.29305541 73.51790178 124.95219874 76.1772978 120.6875 79.25 C117.25 81.125 117.25 81.125 114.6875 82.25 C115.615625 82.806875 116.54375 83.36375 117.5 83.9375 C122.65484116 87.67728673 124.40863252 92.13960951 125.6875 98.25 C125.98494039 101.25540183 126.02126636 104.23141016 126 107.25 C125.99262817 108.49740967 125.99262817 108.49740967 125.98510742 109.77001953 C125.68488614 125.85264277 121.2542882 142.12021444 111.6875 155.25 C111.0275 155.58 110.3675 155.91 109.6875 156.25 C109.6875 153.94 109.6875 151.63 109.6875 149.25 C109.0275 149.25 108.3675 149.25 107.6875 149.25 C107.460625 149.95125 107.23375 150.6525 107 151.375 C105.71736544 154.18458047 104.19085034 156.21218821 102.1640625 158.5234375 C100.47761063 160.4954262 98.9352096 162.55184477 97.375 164.625 C91.99301687 171.54802819 86.58436187 177.30156906 78.6875 181.25 C78.6875 179.93 78.6875 178.61 78.6875 177.25 C77.83027344 177.81589844 76.97304687 178.38179687 76.08984375 178.96484375 C74.93530961 179.7063738 73.78033807 180.44722314 72.625 181.1875 C72.06361328 181.56068359 71.50222656 181.93386719 70.92382812 182.31835938 C61.92336988 188.02722146 49.0514079 187.11652591 38.6875 186.25 C34.73840953 185.34820553 31.28626931 184.08966938 27.6875 182.25 C26.9346875 181.87617188 26.181875 181.50234375 25.40625 181.1171875 C24.8390625 180.83101562 24.271875 180.54484375 23.6875 180.25 C23.3575 180.91 23.0275 181.57 22.6875 182.25 C20.7075 181.26 18.7275 180.27 16.6875 179.25 C16.3575 180.24 16.0275 181.23 15.6875 182.25 C-3.63305108 171.98208197 -19.02819889 160.56782673 -30.3125 141.25 C-30.3125 143.89 -30.3125 146.53 -30.3125 149.25 C-34.2933848 146.41133851 -36.37767255 143.89259194 -38.5 139.5 C-38.98855469 138.51515625 -39.47710937 137.5303125 -39.98046875 136.515625 C-43.1510516 128.74258318 -43.67706984 121.75555018 -43.6875 113.4375 C-43.71199219 112.42107422 -43.73648438 111.40464844 -43.76171875 110.35742188 C-43.79462431 101.75261733 -42.20160317 93.48314045 -36.6875 86.625 C-34.3125 84.25 -34.3125 84.25 -32.3125 83.25 C-32.91835937 82.99347656 -33.52421875 82.73695313 -34.1484375 82.47265625 C-41.18663344 79.25674211 -49.72073586 74.43352828 -53.3125 67.25 C-50.3425 67.91 -47.3725 68.57 -44.3125 69.25 C-44.73402344 68.41855469 -45.15554687 67.58710938 -45.58984375 66.73046875 C-46.13769531 65.64378906 -46.68554688 64.55710937 -47.25 63.4375 C-47.79527344 62.35855469 -48.34054688 61.27960938 -48.90234375 60.16796875 C-53.70168138 50.23692939 -51.87004715 38.87643999 -48.50439453 28.7590332 C-46.56864235 23.41754638 -44.2951362 19.27810009 -40.3125 15.25 C-39.66539063 14.56550781 -39.01828125 13.88101563 -38.3515625 13.17578125 C-27.89129454 2.96097084 -14.20885297 -0.15236328 0 0 Z " fill="#FCFBFA" transform="translate(129.3125,82.75)"/>
<path d="M0 0 C0.92353271 0.00749268 1.84706543 0.01498535 2.79858398 0.02270508 C19.07438809 0.27860046 34.43951218 4.12007656 46.3828125 15.92578125 C49.34337465 19.3346571 50.52339662 22.03094631 51.125 26.5 C50.5435227 31.48409112 48.31468402 33.92351517 44.6875 37.25 C40.76555416 39.21097292 36.94627626 38.98427177 32.6875 38.25 C27.80933229 36.37218995 23.26088642 33.74232351 18.66503906 31.27197266 C14.15130514 28.93931955 9.4110764 27.11080282 4.6875 25.25 C7.3275 27.56 9.9675 29.87 12.6875 32.25 C9.6875 33.25 9.6875 33.25 7.63671875 32.83203125 C-3.09496042 30.7141237 -16.76344692 30.48453399 -26.3125 36.25 C-24.6625 36.58 -23.0125 36.91 -21.3125 37.25 C-21.72242187 37.70890625 -22.13234375 38.1678125 -22.5546875 38.640625 C-23.09351562 39.25421875 -23.63234375 39.8678125 -24.1875 40.5 C-24.72117187 41.10328125 -25.25484375 41.7065625 -25.8046875 42.328125 C-28.56115481 45.84154966 -29.3125 47.68846308 -29.3125 52.25 C-28.9825 51.59 -28.6525 50.93 -28.3125 50.25 C-27.6525 50.25 -26.9925 50.25 -26.3125 50.25 C-26.22613281 50.92546875 -26.13976562 51.6009375 -26.05078125 52.296875 C-25.20466048 57.96233526 -25.20466048 57.96233526 -22.1875 62.6875 C-16.06639537 66.03526627 -16.06639537 66.03526627 -9.3125 67.25 C-9.8178125 66.85167969 -10.323125 66.45335937 -10.84375 66.04296875 C-11.4934375 65.51316406 -12.143125 64.98335938 -12.8125 64.4375 C-13.4621875 63.91542969 -14.111875 63.39335937 -14.78125 62.85546875 C-16.3125 61.25 -16.3125 61.25 -16.3125 58.25 C-15.42691406 58.4665625 -14.54132813 58.683125 -13.62890625 58.90625 C-0.59012616 61.83692274 12.98961817 63.49138611 25.6875 58.25 C24.6975 59.9 23.7075 61.55 22.6875 63.25 C26.73099839 63.4736068 26.73099839 63.4736068 33.6875 59.25 C33.6875 66.51 33.6875 73.77 33.6875 81.25 C35.0075 79.93 36.3275 78.61 37.6875 77.25 C41.03467713 76.56339956 42.32947031 77.03168921 45.25 78.8125 C50.69449196 84.25699196 52.7099672 89.95626839 52.75 97.5625 C52.729375 98.779375 52.70875 99.99625 52.6875 101.25 C51.53435617 98.94371235 50.50510321 96.74572651 49.625 94.3125 C46.90608984 90.01486782 43.32207348 88.18235539 38.6875 86.25 C37.82253906 86.08242187 36.95757812 85.91484375 36.06640625 85.7421875 C32.87295794 85.08147406 31.15399194 83.31652027 28.6875 81.25 C28.0275 81.25 27.3675 81.25 26.6875 81.25 C24.6875 78.25 24.6875 78.25 24.6875 75.25 C23.83929688 75.57097656 22.99109375 75.89195312 22.1171875 76.22265625 C8.44873242 80.31696569 -4.71122802 75.41603871 -17.3125 70.25 C-11.97880675 76.08372699 -6.00322783 80.13504985 1.6875 82.25 C0.965625 82.70375 0.24375 83.1575 -0.5 83.625 C-6.81357031 89.51766562 -10.22213594 98.82223133 -10.61328125 107.37890625 C-10.63284738 108.85664647 -10.63618598 110.33467259 -10.625 111.8125 C-10.61936035 112.59753906 -10.6137207 113.38257813 -10.60791016 114.19140625 C-10.38832059 124.90563779 -8.69361233 134.26800538 -2.6171875 143.26171875 C-1.3125 145.25 -1.3125 145.25 -0.3125 148.25 C0.3475 148.25 1.0075 148.25 1.6875 148.25 C1.1925 143.795 1.1925 143.795 0.6875 139.25 C1.3475 139.25 2.0075 139.25 2.6875 139.25 C3.77443923 141.00235078 4.78044271 142.8050745 5.75 144.625 C9.36146831 150.98058605 13.53096237 156.09346237 18.6875 161.25 C19.38617188 161.94867188 20.08484375 162.64734375 20.8046875 163.3671875 C28.91561408 171.00274842 38.65116804 176.52702025 48.6875 181.25 C48.1925 177.785 48.1925 177.785 47.6875 174.25 C49.3375 174.58 50.9875 174.91 52.6875 175.25 C52.6875 175.91 52.6875 176.57 52.6875 177.25 C53.265 177.53875 53.8425 177.8275 54.4375 178.125 C56.6875 179.25 56.6875 179.25 58.6875 180.4375 C61.23817407 181.47371134 62.13278236 181.22820044 64.6875 180.25 C66.60131477 178.40861928 66.60131477 178.40861928 68.3125 176.1875 C69.39642398 174.84087828 70.51378102 173.51911978 71.6875 172.25 C72.3475 172.25 73.0075 172.25 73.6875 172.25 C73.44974221 176.29188244 73.05698357 178.73041373 70.6875 182.0625 C64.39475507 186.65095985 56.37941106 186.63814714 48.8125 186.625 C47.50249023 186.6247583 47.50249023 186.6247583 46.16601562 186.62451172 C39.40332842 186.50509624 33.75514323 185.351743 27.6875 182.25 C26.9346875 181.87617188 26.181875 181.50234375 25.40625 181.1171875 C24.8390625 180.83101562 24.271875 180.54484375 23.6875 180.25 C23.3575 180.91 23.0275 181.57 22.6875 182.25 C20.7075 181.26 18.7275 180.27 16.6875 179.25 C16.3575 180.24 16.0275 181.23 15.6875 182.25 C-3.63305108 171.98208197 -19.02819889 160.56782673 -30.3125 141.25 C-30.3125 143.89 -30.3125 146.53 -30.3125 149.25 C-34.2933848 146.41133851 -36.37767255 143.89259194 -38.5 139.5 C-38.98855469 138.51515625 -39.47710937 137.5303125 -39.98046875 136.515625 C-43.1510516 128.74258318 -43.67706984 121.75555018 -43.6875 113.4375 C-43.71199219 112.42107422 -43.73648438 111.40464844 -43.76171875 110.35742188 C-43.79462431 101.75261733 -42.20160317 93.48314045 -36.6875 86.625 C-34.3125 84.25 -34.3125 84.25 -32.3125 83.25 C-32.91835937 82.99347656 -33.52421875 82.73695313 -34.1484375 82.47265625 C-41.18663344 79.25674211 -49.72073586 74.43352828 -53.3125 67.25 C-50.3425 67.91 -47.3725 68.57 -44.3125 69.25 C-44.73402344 68.41855469 -45.15554687 67.58710938 -45.58984375 66.73046875 C-46.13769531 65.64378906 -46.68554688 64.55710937 -47.25 63.4375 C-47.79527344 62.35855469 -48.34054688 61.27960938 -48.90234375 60.16796875 C-53.70168138 50.23692939 -51.87004715 38.87643999 -48.50439453 28.7590332 C-46.56864235 23.41754638 -44.2951362 19.27810009 -40.3125 15.25 C-39.66539063 14.56550781 -39.01828125 13.88101563 -38.3515625 13.17578125 C-27.89129454 2.96097084 -14.20885297 -0.15236328 0 0 Z " fill="#F6C042" transform="translate(129.3125,82.75)"/>
<path d="M0 0 C0.495 7.92 0.495 7.92 1 16 C-0.505625 16.268125 -2.01125 16.53625 -3.5625 16.8125 C-11.54891863 18.43685633 -17.37659734 20.73067261 -22.1953125 27.73828125 C-24.27735806 31.13798502 -25 32.9402314 -25 37 C-24.52949219 36.62746094 -24.05898438 36.25492188 -23.57421875 35.87109375 C-22.95160156 35.39800781 -22.32898438 34.92492187 -21.6875 34.4375 C-21.07261719 33.96183594 -20.45773438 33.48617187 -19.82421875 32.99609375 C-18.92123047 32.50302734 -18.92123047 32.50302734 -18 32 C-17.01 32.33 -16.02 32.66 -15 33 C-15.66 33.99 -16.32 34.98 -17 36 C-17.31914534 39.26165148 -17.31914534 39.26165148 -17.25 42.875 C-17.25515625 44.08929688 -17.2603125 45.30359375 -17.265625 46.5546875 C-17.01353508 49.82444211 -16.40602799 52.06519555 -15 55 C-14.90203125 54.39671875 -14.8040625 53.7934375 -14.703125 53.171875 C-14.55359375 52.37265625 -14.4040625 51.5734375 -14.25 50.75 C-14.11078125 49.96109375 -13.9715625 49.1721875 -13.828125 48.359375 C-12.80881571 45.45530515 -11.27953553 44.0200762 -9 42 C-8.96559814 42.57331055 -8.93119629 43.14662109 -8.89575195 43.73730469 C-7.96458747 58.13354077 -6.46448018 70.48914572 3 82 C3.99 82.495 3.99 82.495 5 83 C4.67 83.66 4.34 84.32 4 85 C-15.51729631 78.89581275 -35.63494787 70.9023675 -46.07421875 51.921875 C-46.37972656 51.28765625 -46.68523438 50.6534375 -47 50 C-47.31582031 49.38640625 -47.63164063 48.7728125 -47.95703125 48.140625 C-51.95946645 38.71022973 -51.57459456 24.61538725 -48.02734375 15.1015625 C-43.85222916 6.56083379 -37.77873338 1.75386044 -29 -1.8125 C-19.21137416 -4.74908775 -9.50581303 -3.00183569 0 0 Z " fill="#FBFBF7" transform="translate(67,103)"/>
<path d="M0 0 C1.17433594 0.10441406 2.34867188 0.20882812 3.55859375 0.31640625 C15.97556201 1.85036202 28.76907601 7.70071466 37.0625 17.25 C40.07199717 21.52154437 40.60227882 24.83761008 40 30 C37.89797249 33.27269513 35.511593 36.2442035 32 38 C22.77172622 39.92090677 15.77995291 35.21591083 7.97753906 31.02197266 C3.46380514 28.68931955 -1.2764236 26.86080282 -6 25 C-3.36 27.31 -0.72 29.62 2 32 C-1.29420226 33.09806742 -2.16527724 32.88939124 -5.4375 32.125 C-10.9578314 31.03710513 -16.39278617 30.64208441 -22 30.375 C-22.87003662 30.3322998 -23.74007324 30.28959961 -24.63647461 30.24560547 C-29.28320404 30.0426378 -33.85068439 30.03753128 -38.5 30.25 C-42.05756784 30.27233952 -42.71009635 30.21574225 -45.6875 28 C-47.31928844 24.27019785 -48.02931328 20.99615743 -47 17 C-37.70173007 1.4685408 -16.24692952 -1.94563318 0 0 Z " fill="#FCFBFA" transform="translate(140,83)"/>
<path d="M0 0 C0.66 0.33 1.32 0.66 2 1 C2.33 1.99 2.66 2.98 3 4 C5.67129976 5.23214251 5.67129976 5.23214251 8.9375 6.125 C10.01902344 6.45757812 11.10054687 6.79015625 12.21484375 7.1328125 C21.2518871 9.20321872 30.42231281 9.21430574 39.65722656 9.24023438 C41.732833 9.24991989 43.8074376 9.28104003 45.8828125 9.3125 C54.89994103 9.3825827 63.28943391 8.50703958 72 6 C72.33 5.67 72.66 5.34 73 5 C72.01 4.01 72.01 4.01 71 3 C75.00165645 2.11963558 77.41200844 1.78921057 81.3125 3.1875 C84.07969371 5.05374692 85.07221181 5.84552014 86 9 C86.125 11.75 86.125 11.75 86 14 C85.34 14 84.68 14 84 14 C83.01 13.01 83.01 13.01 82 12 C81.525625 13.155 81.05125 14.31 80.5625 15.5 C76.34493826 23.87572121 68.71499962 29.07981364 60 32 C42.59810197 36.54386076 23.05648493 35.96922308 7.05078125 27.42578125 C-1.09485147 22.20234861 -6.72047961 15.06690932 -10 6 C-11.65 7.65 -13.3 9.3 -15 11 C-14.72409808 7.41327507 -14.40452578 4.68593503 -12.5625 1.5625 C-8.59562064 -0.85632888 -4.53554546 -0.48200048 0 0 Z " fill="#141244" transform="translate(142,191)"/>
<path d="M0 0 C15.72237745 -0.44626836 28.42540353 -0.48657415 40.75 10.4375 C45.61668418 15.98011254 47.49903833 19.73605573 48 27 C48.763125 26.67 49.52625 26.34 50.3125 26 C58.60536002 23.75108881 65.40041755 24.33421596 72.90625 28.5859375 C78.07732429 32.07834215 80.62530436 36.99317774 82 43 C83.35769328 55.97147502 80.51274399 66.22770063 72.34375 76.359375 C68.13044035 81.10637054 64.20864688 85.11859185 58 87 C58 87.66 58 88.32 58 89 C55.33333333 89.66666667 52.66666667 90.33333333 50 91 C49.25234375 91.18691406 48.5046875 91.37382812 47.734375 91.56640625 C47.16203125 91.70949219 46.5896875 91.85257812 46 92 C46.40992188 91.28199219 46.81984375 90.56398438 47.2421875 89.82421875 C52.35090208 80.01010916 53.33146037 70.91563845 54 60 C57.42436208 62.9836935 57.57781494 65.5248384 58 70 C58.96604701 66.75684218 59.13419024 63.81491334 59.125 60.4375 C59.12757813 59.48746094 59.13015625 58.53742188 59.1328125 57.55859375 C59.10770994 54.8787562 59.10770994 54.8787562 58 52 C62.875 53.875 62.875 53.875 64 55 C63.45941202 50.40500217 62.04496572 47.49057046 59 44 C55.76364933 42.34880068 52.45265056 41.12013472 49 40 C48.85304688 40.8353125 48.85304688 40.8353125 48.703125 41.6875 C46.72552928 51.78005746 43.2423921 57.73781298 35 64 C31.3558226 66.4294516 29.28758728 66.16179575 25 66 C24.505 65.01 24.505 65.01 24 64 C25.03125 63.649375 26.0625 63.29875 27.125 62.9375 C33.36849838 60.20045121 36.69383035 55.31185594 39.375 49.1875 C42.26688225 40.40249637 42.93286003 28.59070294 39.4375 19.875 C38.34693797 17.86137061 38.34693797 17.86137061 37 16 C36.27103516 14.94425781 36.27103516 14.94425781 35.52734375 13.8671875 C30.62877583 7.59053547 24.45119654 4.48373218 17 2 C15.66636297 1.85596652 14.32781954 1.75409577 12.98828125 1.68359375 C11.85229492 1.62075195 11.85229492 1.62075195 10.69335938 1.55664062 C9.51483398 1.49766602 9.51483398 1.49766602 8.3125 1.4375 C7.51521484 1.39431641 6.71792969 1.35113281 5.89648438 1.30664062 C3.93118553 1.20072632 1.96561504 1.09987449 0 1 C0 0.67 0 0.34 0 0 Z " fill="#F8F3F7" transform="translate(218,85)"/>
<path d="M0 0 C0.88558594 0.2165625 1.77117187 0.433125 2.68359375 0.65625 C15.72237384 3.58692274 29.30211817 5.24138611 42 0 C41.01 1.65 40.02 3.3 39 5 C43.04349839 5.2236068 43.04349839 5.2236068 50 1 C50 8.26 50 15.52 50 23 C51.32 21.68 52.64 20.36 54 19 C57.34717713 18.31339956 58.64197031 18.78168921 61.5625 20.5625 C67.00699196 26.00699196 69.0224672 31.70626839 69.0625 39.3125 C69.041875 40.529375 69.02125 41.74625 69 43 C67.84685617 40.69371235 66.81760321 38.49572651 65.9375 36.0625 C63.21858984 31.76486782 59.63457348 29.93235539 55 28 C54.13503906 27.83242187 53.27007812 27.66484375 52.37890625 27.4921875 C49.18545794 26.83147406 47.46649194 25.06652027 45 23 C44.34 23 43.68 23 43 23 C41 20 41 20 41 17 C40.15179688 17.32097656 39.30359375 17.64195312 38.4296875 17.97265625 C24.76123242 22.06696569 11.60127198 17.16603871 -1 12 C4.33369325 17.83372699 10.30927217 21.88504985 18 24 C16.35 25.32 14.7 26.64 13 28 C12.67 26.68 12.34 25.36 12 24 C11.01 24 10.02 24 9 24 C9 23.34 9 22.68 9 22 C8.01 22 7.02 22 6 22 C6 21.34 6 20.68 6 20 C5.01 20 4.02 20 3 20 C3 19.34 3 18.68 3 18 C2.01 18 1.02 18 0 18 C-2 15 -2 15 -2 11 C4.75 9 4.75 9 7 9 C6.4946875 8.60167969 5.989375 8.20335937 5.46875 7.79296875 C4.49421875 6.99826172 4.49421875 6.99826172 3.5 6.1875 C2.52546875 5.40439453 2.52546875 5.40439453 1.53125 4.60546875 C0 3 0 3 0 0 Z " fill="#F4BF44" transform="translate(113,141)"/>
<path d="M0 0 C1.64625988 0.2892494 3.29198182 0.58156054 4.9375 0.875 C5.85402344 1.03742188 6.77054688 1.19984375 7.71484375 1.3671875 C11 2 11 2 14.828125 3.0546875 C21.31330087 4.50639999 27.93642763 4.2979518 34.54614258 4.26074219 C36.79731496 4.25007197 39.04768076 4.26065667 41.29882812 4.2734375 C48.86506566 4.27968654 56.04290942 3.94510584 63.4909668 2.42871094 C66.04328872 1.99260339 68.41606736 1.92682874 71 2 C67.92849245 4.55227651 65.01474376 5.88776704 61.25 7.1875 C60.26515625 7.53167969 59.2803125 7.87585938 58.265625 8.23046875 C57.51796875 8.48441406 56.7703125 8.73835937 56 9 C61.56890517 8.52013969 66.67067568 7.70084819 72 6 C66.95043192 13.23771425 60.2130591 16.57545269 51.625 18.3125 C34.49919782 20.58857435 17.72878188 19.99906528 3 10 C0.4375 7.8125 0.4375 7.8125 -1 6 C-1 5.34 -1 4.68 -1 4 C4.28 5.32 9.56 6.64 15 8 C12.525 7.01 12.525 7.01 10 6 C8.22051575 5.14273021 6.44946276 4.2677278 4.6875 3.375 C3.80449219 2.92898437 2.92148438 2.48296875 2.01171875 2.0234375 C1.34785156 1.68570313 0.68398437 1.34796875 0 1 C0 0.67 0 0.34 0 0 Z " fill="#EFEFF4" transform="translate(144,201)"/>
<path d="M0 0 C1.093125 0.0825 2.18625 0.165 3.3125 0.25 C1.91805541 5.51790178 -1.42280126 8.1772978 -5.6875 11.25 C-9.125 13.125 -9.125 13.125 -11.6875 14.25 C-10.759375 14.806875 -9.83125 15.36375 -8.875 15.9375 C-3.72015884 19.67728673 -1.96636748 24.13960951 -0.6875 30.25 C-0.39005961 33.25540183 -0.35373364 36.23141016 -0.375 39.25 C-0.37991455 40.08160645 -0.3848291 40.91321289 -0.38989258 41.77001953 C-0.69011386 57.85264277 -5.1207118 74.12021444 -14.6875 87.25 C-15.6775 87.745 -15.6775 87.745 -16.6875 88.25 C-17.91436204 82.58755981 -17.9832252 79.26928275 -15.5 74 C-9.43608587 60.70342851 -5.22291048 40.64431813 -9.59375 26.26953125 C-10.62271848 23.85412021 -10.62271848 23.85412021 -11.8125 21.81640625 C-12.6875 20.25 -12.6875 20.25 -12.6875 18.25 C-13.285625 17.981875 -13.88375 17.71375 -14.5 17.4375 C-16.67066883 16.25913692 -17.99567212 15.01939019 -19.6875 13.25 C-19.16800781 13.01925781 -18.64851562 12.78851563 -18.11328125 12.55078125 C-12.65665455 9.99897616 -8.47383801 7.25429575 -5.3125 1.9375 C-3.6875 0.25 -3.6875 0.25 0 0 Z " fill="#D84982" transform="translate(255.6875,150.75)"/>
<path d="M0 0 C0 0.33 0 0.66 0 1 C-1.46759766 1.03867188 -1.46759766 1.03867188 -2.96484375 1.078125 C-13.33177102 1.52664496 -21.55035833 2.95881587 -29.4296875 10.16015625 C-36.67208286 18.64564933 -37.53082535 28.29741329 -37 39 C-34.45038418 53.27784858 -24.50183689 65.61126359 -13 74 C-6.42564905 78.45098589 -6.42564905 78.45098589 1 81 C1 81.66 1 82.32 1 83 C-13.50738137 81.28288961 -26.63048172 70.66115866 -36 60 C-37.95012332 57.44711129 -39.5442005 54.86196947 -41 52 C-41.3196875 51.38253906 -41.639375 50.76507813 -41.96875 50.12890625 C-45.9455898 40.68391171 -45.57738334 26.62286684 -42.02734375 17.1015625 C-37.85222916 8.56083379 -31.77873338 3.75386044 -23 0.1875 C-15.70289899 -2.0016303 -7.35949048 -1.68178485 0 0 Z " fill="#EFBE50" transform="translate(61,101)"/>
<path d="M0 0 C15.72237745 -0.44626836 28.42540353 -0.48657415 40.75 10.4375 C45.68968342 16.06325056 47.25982851 19.72164698 48 27 C48.66 27.33 49.32 27.66 50 28 C49.48381506 40.3528395 48.6283158 50.61100145 40 60 C34.90368057 64.50372415 31.88993313 66.25999748 25 66 C24.505 65.01 24.505 65.01 24 64 C25.03125 63.649375 26.0625 63.29875 27.125 62.9375 C33.36849838 60.20045121 36.69383035 55.31185594 39.375 49.1875 C42.26688225 40.40249637 42.93286003 28.59070294 39.4375 19.875 C38.34693797 17.86137061 38.34693797 17.86137061 37 16 C36.27103516 14.94425781 36.27103516 14.94425781 35.52734375 13.8671875 C30.62877583 7.59053547 24.45119654 4.48373218 17 2 C15.66636297 1.85596652 14.32781954 1.75409577 12.98828125 1.68359375 C11.85229492 1.62075195 11.85229492 1.62075195 10.69335938 1.55664062 C9.51483398 1.49766602 9.51483398 1.49766602 8.3125 1.4375 C7.51521484 1.39431641 6.71792969 1.35113281 5.89648438 1.30664062 C3.93118553 1.20072632 1.96561504 1.09987449 0 1 C0 0.67 0 0.34 0 0 Z " fill="#C15680" transform="translate(218,85)"/>
<path d="M0 0 C8.21322693 -0.70265249 14.10688178 0.34457315 21 5 C26.40430525 10.12716139 28.16680827 16.51060576 28.375 23.75 C27.91581967 37.2873165 23.51332767 46.30778357 14.03125 56.015625 C10.93260064 58.81528188 8.05348908 60.77166998 4 62 C4 62.66 4 63.32 4 64 C2.68 63.67 1.36 63.34 0 63 C0.49628906 62.6596875 0.99257813 62.319375 1.50390625 61.96875 C10.38290492 55.63382875 16.86220219 48.45142734 19.5859375 37.68359375 C21.0746563 28.03501057 21.23387756 17.31431739 15.640625 8.97265625 C11.18360982 3.35543866 7.03607234 1.98177754 0 1 C0 0.67 0 0.34 0 0 Z " fill="#DB4682" transform="translate(272,110)"/>
<path d="M0 0 C0.66 0.33 1.32 0.66 2 1 C2.33 1.99 2.66 2.98 3 4 C12.23558041 8.38402023 22.29747599 8.80014982 32.3125 9.25 C33.74682559 9.32662724 35.18107237 9.40474466 36.61523438 9.484375 C40.07608846 9.67336188 43.53755613 9.84242694 47 10 C47 10.33 47 10.66 47 11 C39.08 11.495 39.08 11.495 31 12 C31.495 13.485 31.495 13.485 32 15 C21.99091728 15.65633329 12.68981865 13.22845932 3 11 C12.31938459 15.0183841 12.31938459 15.0183841 22 18 C22 18.33 22 18.66 22 19 C14.05875842 18.56217489 6.07812046 17.73887111 -1.03515625 13.90234375 C-3.24547783 12.72177407 -3.24547783 12.72177407 -7 13 C-7.99 10.69 -8.98 8.38 -10 6 C-11.65 7.65 -13.3 9.3 -15 11 C-14.72409808 7.41327507 -14.40452578 4.68593503 -12.5625 1.5625 C-8.59562064 -0.85632888 -4.53554546 -0.48200048 0 0 Z " fill="#161549" transform="translate(142,191)"/>
<path d="M0 0 C0.66 0 1.32 0 2 0 C1.76224221 4.04188244 1.36948357 6.48041373 -1 9.8125 C-7.58128811 14.61135591 -15.69865861 14.27500725 -23.5625 14.125 C-24.47580078 14.11597656 -25.38910156 14.10695313 -26.33007812 14.09765625 C-28.55367319 14.07437253 -30.77668677 14.0416771 -33 14 C-33 13.34 -33 12.68 -33 12 C-32.01 11.34 -31.02 10.68 -30 10 C-29.67 9.67 -29.34 9.34 -29 9 C-27.00041636 8.95919217 -24.99954746 8.95745644 -23 9 C-23.33 6.69 -23.66 4.38 -24 2 C-22.35 2.33 -20.7 2.66 -19 3 C-19 3.66 -19 4.32 -19 5 C-18.4225 5.28875 -17.845 5.5775 -17.25 5.875 C-15 7 -15 7 -13 8.1875 C-10.44932593 9.22371134 -9.55471764 8.97820044 -7 8 C-5.08618523 6.15861928 -5.08618523 6.15861928 -3.375 3.9375 C-2.29107602 2.59087828 -1.17371898 1.26911978 0 0 Z " fill="#F3B464" transform="translate(201,255)"/>
<path d="M0 0 C1.32 0.66 2.64 1.32 4 2 C4.87326114 7.78535506 3.96786248 10.64976266 0.5625 15.4375 C-5.33393394 22.93826402 -11.34401203 29.76409099 -20 34 C-18.98024106 27.88144638 -16.54584882 25.28775614 -12.09375 21.09375 C-6.10148904 15.10148904 -2.80150038 7.89363931 0 0 Z " fill="#D35387" transform="translate(228,230)"/>
<path d="M0 0 C1.32 0 2.64 0 4 0 C4.99 2.31 5.98 4.62 7 7 C6.67 6.01 6.34 5.02 6 4 C6 2.68 6 1.36 6 0 C7.32 0 8.64 0 10 0 C10.18175781 0.84884766 10.18175781 0.84884766 10.3671875 1.71484375 C10.53476563 2.44832031 10.70234375 3.18179688 10.875 3.9375 C11.11863281 5.03384766 11.11863281 5.03384766 11.3671875 6.15234375 C11.82961523 8.20700294 11.82961523 8.20700294 14 9 C16.9157691 9.41702122 16.9157691 9.41702122 20 9 C22.25065102 7.08333079 22.25065102 7.08333079 24 5 C24.66 5 25.32 5 26 5 C25.67 6.32 25.34 7.64 25 9 C25.433125 8.505 25.86625 8.01 26.3125 7.5 C28 6 28 6 31 6 C29.60415208 9.37329915 28.07634389 11.04232662 25 13 C19.87472373 14.70842542 14.07067769 14.93186928 8.86328125 13.3515625 C4.06571873 10.91635723 2.14259403 7.71370686 0 3 C0 2.01 0 1.02 0 0 Z " fill="#ECECEF" transform="translate(121,125)"/>
<path d="M0 0 C4.72035169 7.08052754 3.64544065 15.93656409 2.0625 24 C-0.58081061 33.5459843 -7.74672527 42.51146991 -16 48 C-18.9375 49.375 -18.9375 49.375 -21 50 C-21 50.66 -21 51.32 -21 52 C-22.32 51.67 -23.64 51.34 -25 51 C-24.50371094 50.6596875 -24.00742187 50.319375 -23.49609375 49.96875 C-12.98703817 42.47082799 -7.7650367 34.23636929 -4 22 C-2.35 22 -0.7 22 1 22 C0.67 14.74 0.34 7.48 0 0 Z " fill="#BE5680" transform="translate(297,122)"/>
<path d="M0 0 C0.495 1.485 0.495 1.485 1 3 C-7.94016268 5.73678449 -16.11114262 6.13445409 -25.4375 6.0625 C-26.55060547 6.05798828 -27.66371094 6.05347656 -28.81054688 6.04882812 C-31.54042101 6.03711193 -34.27018174 6.02070699 -37 6 C-37.33 5.01 -37.66 4.02 -38 3 C-38.66 2.67 -39.32 2.34 -40 2 C-36.07172765 1.71007353 -32.14310426 1.42550392 -28.21411133 1.14550781 C-26.23434117 1.00336313 -24.25486091 0.85719891 -22.27539062 0.7109375 C-14.83425254 0.18346442 -7.45984395 -0.1400727 0 0 Z " fill="#141242" transform="translate(211,200)"/>
<path d="M0 0 C11.6931833 -1.14639052 22.94692814 5.03609857 32 12 C35.22490245 15.09132661 37.57969261 17.73907782 39 22 C39.03954234 24.33299825 39.04401732 26.66708189 39 29 C38.42507812 28.27554688 37.85015625 27.55109375 37.2578125 26.8046875 C27.44917041 14.62024975 16.05207262 3.70896737 0 1 C0 0.67 0 0.34 0 0 Z " fill="#D25385" transform="translate(141,84)"/>
<path d="M0 0 C0.99 0 1.98 0 3 0 C3 1.65 3 3.3 3 5 C3.66 3.68 4.32 2.36 5 1 C5.99 1 6.98 1 8 1 C7.49607061 5.40938215 6.0379639 7.78843816 3 11 C-1.67594741 13.88451301 -6.68398856 13.87601879 -12 13 C-14.86237246 11.44094146 -17.10176571 9.66271089 -19 7 C-19 6.01 -19 5.02 -19 4 C-18.01 4.33 -17.02 4.66 -16 5 C-15.67 5 -15.34 5 -15 5 C-15 4.34 -15 3.68 -15 3 C-14.34 3 -13.68 3 -13 3 C-12.5875 3.825 -12.175 4.65 -11.75 5.5 C-10.20816734 8.3230237 -10.20816734 8.3230237 -7 8.5625 C-3.95325185 8.2759649 -3.95325185 8.2759649 -2.1875 6.25 C-1.07139639 4.13527738 -0.41881617 2.34537058 0 0 Z " fill="#E5E5E9" transform="translate(221,123)"/>
<path d="M0 0 C5.1849007 3.16152482 7.97647389 7.67354016 9.75 13.4375 C10.09518534 16.97564974 10.06025159 20.44515607 10 24 C8.85544453 21.71088906 7.84404168 19.55161984 7 17.125 C4.42140673 13.09594802 1.41736704 11.55838552 -2.72265625 9.296875 C-5 8 -5 8 -7 6 C-7.125 3.375 -7.125 3.375 -7 1 C-4.39120333 -0.30439833 -2.90289827 -0.33754631 0 0 Z " fill="#100E44" transform="translate(172,160)"/>
<path d="M0 0 C0.33 0.99 0.66 1.98 1 3 C1.66 3 2.32 3 3 3 C3 10.26 3 17.52 3 25 C2.34 25 1.68 25 1 25 C0.67 26.98 0.34 28.96 0 31 C-1.32 31 -2.64 31 -4 31 C-3.72160057 26.76985043 -3.42496921 22.54117041 -3.125 18.3125 C-3.04636719 17.11431641 -2.96773438 15.91613281 -2.88671875 14.68164062 C-2.80292969 13.52470703 -2.71914063 12.36777344 -2.6328125 11.17578125 C-2.55949707 10.11270752 -2.48618164 9.04963379 -2.41064453 7.9543457 C-2.00191152 5.01375225 -1.2235661 2.69315173 0 0 Z " fill="#DF4584" transform="translate(262,105)"/>
<path d="M0 0 C0.66 0.66 1.32 1.32 2 2 C1.90015832 4.99525048 1.06439521 5.93939274 -1.125 8 C-3.30285803 9.51503167 -5.28933742 10.67747808 -7.625 11.875 C-11.3678411 14.23160366 -12.43044248 15.93761584 -14 20 C-14.33 20 -14.66 20 -15 20 C-15.82564888 12.56916009 -13.50540736 7.8975892 -9 2 C-5.54754176 -0.30163882 -4.05261287 -0.34490322 0 0 Z " fill="#100E42" transform="translate(200,160)"/>
<path d="M0 0 C-0.62567871 0.34780518 -1.25135742 0.69561035 -1.89599609 1.05395508 C-4.72649787 2.6327975 -7.55075839 4.22248865 -10.375 5.8125 C-11.35984375 6.35970703 -12.3446875 6.90691406 -13.359375 7.47070312 C-14.30039063 8.00244141 -15.24140625 8.53417969 -16.2109375 9.08203125 C-17.08024902 9.56905518 -17.94956055 10.0560791 -18.84521484 10.55786133 C-21.25968962 11.97467038 -21.25968962 11.97467038 -23 15 C-23.45434384 21.31867657 -23.45434384 21.31867657 -21 27 C-21.99 27 -22.98 27 -24 27 C-24 26.34 -24 25.68 -24 25 C-24.66 25 -25.32 25 -26 25 C-26.33 21.7 -26.66 18.4 -27 15 C-27.99 15 -28.98 15 -30 15 C-23.49197694 7.45834975 -10.65271392 -3.20981962 0 0 Z " fill="#EDC05C" transform="translate(117,85)"/>
<path d="M0 0 C14.44005932 -0.40987068 25.80036728 -0.53692544 38 8 C38.99 8.66 39.98 9.32 41 10 C41 10.99 41 11.98 41 13 C40.34 13 39.68 13 39 13 C39 14.32 39 15.64 39 17 C39.66 17 40.32 17 41 17 C41.495 20.96 41.495 20.96 42 25 C40.39423636 22.59135455 39.16123179 20.32246359 37.875 17.75 C33.79786497 10.439685 27.93050658 5.59692079 20.07421875 2.7109375 C13.50375544 1.19146568 6.71923889 1.15589881 0 1 C0 0.67 0 0.34 0 0 Z " fill="#CD5584" transform="translate(218,85)"/>
<path d="M0 0 C1.010625 -0.00257812 2.02125 -0.00515625 3.0625 -0.0078125 C5.81714744 0.11673273 8.31838803 0.50389135 11 1.125 C11 1.455 11 1.785 11 2.125 C9.53240234 2.16367188 9.53240234 2.16367188 8.03515625 2.203125 C-2.53399596 2.66039412 -10.47681455 4.17644648 -18.4921875 11.46484375 C-20.89458392 14.10996934 -22.40518467 16.93536933 -24 20.125 C-24.33 19.135 -24.66 18.145 -25 17.125 C-23.1875 14.125 -23.1875 14.125 -21 11.125 C-20.34 10.135 -19.68 9.145 -19 8.125 C-20.32 8.455 -21.64 8.785 -23 9.125 C-16.61537896 1.9664855 -9.31071907 -0.02375183 0 0 Z " fill="#E2B957" transform="translate(50,99.875)"/>
<path d="M0 0 C1.093125 0.0825 2.18625 0.165 3.3125 0.25 C1.91805541 5.51790178 -1.42280126 8.1772978 -5.6875 11.25 C-9.125 13.125 -9.125 13.125 -11.6875 14.25 C-11.6875 14.58 -11.6875 14.91 -11.6875 15.25 C-13.9975 15.25 -16.3075 15.25 -18.6875 15.25 C-19.0175 14.59 -19.3475 13.93 -19.6875 13.25 C-19.16800781 13.01925781 -18.64851562 12.78851563 -18.11328125 12.55078125 C-12.65665455 9.99897616 -8.47383801 7.25429575 -5.3125 1.9375 C-3.6875 0.25 -3.6875 0.25 0 0 Z " fill="#C85180" transform="translate(255.6875,150.75)"/>
<path d="M0 0 C0.71671875 0.14566406 1.4334375 0.29132813 2.171875 0.44140625 C3.99128878 0.8007656 5.81414555 1.14331852 7.640625 1.46484375 C8.50171875 1.62082031 9.3628125 1.77679688 10.25 1.9375 C11.55710938 2.16759766 11.55710938 2.16759766 12.890625 2.40234375 C13.58671875 2.59957031 14.2828125 2.79679687 15 3 C15.33 3.66 15.66 4.32 16 5 C15.34 5 14.68 5 14 5 C13.566875 5.9590625 13.566875 5.9590625 13.125 6.9375 C12 9 12 9 10 10 C6.4182378 10.38932198 4.63718279 10.43596718 1.625 8.375 C-0.4131192 5.3962104 -0.32152515 3.53677664 0 0 Z " fill="#191742" transform="translate(131,125)"/>
<path d="M0 0 C2.64 0.33 5.28 0.66 8 1 C7.01 1.33 6.02 1.66 5 2 C4.8453125 3.3921875 4.8453125 3.3921875 4.6875 4.8125 C4 8 4 8 2.8125 9.875 C0.09975061 11.55877549 -1.87875511 11.39015561 -5 11 C-6.875 9.75 -6.875 9.75 -8 8 C-8 6.68 -8 5.36 -8 4 C-4.535 3.505 -4.535 3.505 -1 3 C-0.67 2.01 -0.34 1.02 0 0 Z " fill="#13132D" transform="translate(216,121)"/>
<path d="M0 0 C4.85074265 3.84714072 6.52893096 9.27507262 7.28735352 15.2722168 C7.40127292 17.56487603 7.4157476 19.82995132 7.375 22.125 C7.36412354 23.3469104 7.36412354 23.3469104 7.35302734 24.59350586 C6.91597764 44.08402236 6.91597764 44.08402236 2 49 C2.14019692 46.18711295 2.28687955 43.37483115 2.4375 40.5625 C2.49647461 39.35883789 2.49647461 39.35883789 2.55664062 38.13085938 C2.88671875 32.11328125 2.88671875 32.11328125 4 31 C4.09891197 29.57044211 4.13079423 28.13609927 4.1328125 26.703125 C4.13410156 25.8265625 4.13539063 24.95 4.13671875 24.046875 C4.13285156 23.12390625 4.12898437 22.2009375 4.125 21.25 C4.12886719 20.3425 4.13273438 19.435 4.13671875 18.5 C4.13542969 17.61828125 4.13414062 16.7365625 4.1328125 15.828125 C4.13112061 14.6201123 4.13112061 14.6201123 4.12939453 13.38769531 C3.99168305 10.84652882 3.55489372 8.48076614 3 6 C2.34 6 1.68 6 1 6 C0.67 4.02 0.34 2.04 0 0 Z " fill="#AF4D73" transform="translate(248,168)"/>
<path d="M0 0 C0.33 0.99 0.66 1.98 1 3 C2.8653245 4.01754868 2.8653245 4.01754868 5.0625 4.6875 C5.79597656 4.93886719 6.52945313 5.19023437 7.28515625 5.44921875 C7.85105469 5.63097656 8.41695312 5.81273437 9 6 C4.92320841 7.6852084 2.16924407 6.16939007 -1.75 4.5625 C-2.92046875 4.08941406 -4.0909375 3.61632812 -5.296875 3.12890625 C-6.18890625 2.75636719 -7.0809375 2.38382813 -8 2 C-2.66630675 7.83372699 3.30927217 11.88504985 11 14 C9.35 15.32 7.7 16.64 6 18 C5.67 16.68 5.34 15.36 5 14 C4.01 14 3.02 14 2 14 C2 13.34 2 12.68 2 12 C1.01 12 0.02 12 -1 12 C-1 11.34 -1 10.68 -1 10 C-1.99 10 -2.98 10 -4 10 C-4 9.34 -4 8.68 -4 8 C-4.99 8 -5.98 8 -7 8 C-9 5 -9 5 -9 1 C-3.47033898 -1.61122881 -3.47033898 -1.61122881 0 0 Z " fill="#EDC562" transform="translate(120,151)"/>
<path d="M0 0 C0.66 0 1.32 0 2 0 C1.76224221 4.04188244 1.36948357 6.48041373 -1 9.8125 C-7.58128811 14.61135591 -15.69865861 14.27500725 -23.5625 14.125 C-24.47580078 14.11597656 -25.38910156 14.10695313 -26.33007812 14.09765625 C-28.55367319 14.07437253 -30.77668677 14.0416771 -33 14 C-33 13.67 -33 13.34 -33 13 C-31.68644531 12.95101563 -30.37289062 12.90203125 -29.01953125 12.8515625 C-27.28383405 12.77650532 -25.54815797 12.70095877 -23.8125 12.625 C-22.94818359 12.5940625 -22.08386719 12.563125 -21.19335938 12.53125 C-14.09842417 12.20504608 -9.81791406 11.2613459 -4.75 6 C-4.06421875 5.29875 -3.3784375 4.5975 -2.671875 3.875 C-0.93921791 2.09632704 -0.93921791 2.09632704 0 0 Z " fill="#A56264" transform="translate(201,255)"/>
<path d="M0 0 C-1 3 -1 3 -3.0625 4.6875 C-6.77585161 6.3466571 -10.03240329 6.72700602 -14 6 C-16.36017733 4.89226349 -17.96167215 3.68162047 -20 2 C-20 1.67 -20 1.34 -20 1 C-17.4167588 0.83178895 -14.83342301 0.66537483 -12.25 0.5 C-11.52039063 0.45230469 -10.79078125 0.40460938 -10.0390625 0.35546875 C-6.68189836 0.14183103 -3.36563724 0 0 0 Z " fill="#EEC25B" transform="translate(196,228)"/>
<path d="M0 0 C0.66 0.33 1.32 0.66 2 1 C2 4.63 2 8.26 2 12 C2.99 12 3.98 12 5 12 C5.36552803 13.41377782 5.71695495 14.83120576 6.0625 16.25 C6.25972656 17.03890625 6.45695312 17.8278125 6.66015625 18.640625 C7.01497267 21.10394822 6.76877544 22.65604132 6 25 C5.34 24.34 4.68 23.68 4 23 C4 21.68 4 20.36 4 19 C3.34 19 2.68 19 2 19 C-0.39432752 12.97142536 -1.75681712 7.52027055 -1 1 C-0.67 0.67 -0.34 0.34 0 0 Z " fill="#F7C043" transform="translate(19,132)"/>
<path d="M0 0 C2.62113708 0 4.50935112 0.31292445 7 1 C6.07248802 2.9630836 5.13263547 4.92034027 4.1875 6.875 C3.66542969 7.96554688 3.14335937 9.05609375 2.60546875 10.1796875 C1 13 1 13 -2 15 C-3.09644404 9.05542387 -3.41029848 5.32006564 0 0 Z " fill="#D14E83" transform="translate(241,224)"/>
<path d="M0 0 C6.93 0 13.86 0 21 0 C21 0.99 21 1.98 21 3 C17.81175432 4.59412284 14.37103338 4.10174735 10.875 4.0625 C10.12089844 4.05798828 9.36679688 4.05347656 8.58984375 4.04882812 C6.72652873 4.03703499 4.86325445 4.01909942 3 4 C2.67 3.01 2.34 2.02 2 1 C1.34 0.67 0.68 0.34 0 0 Z " fill="#06023A" transform="translate(171,202)"/>
<path d="M0 0 C-0.33 2.31 -0.66 4.62 -1 7 C-3.07553648 7.5534764 -4.84365964 8 -7 8 C-7.08886184 11.19902639 -6.91058531 13.92677456 -6 17 C-6.99 17.66 -7.98 18.32 -9 19 C-9.72382467 21.05925139 -9.72382467 21.05925139 -10 23 C-10.66 23 -11.32 23 -12 23 C-11.42973071 15.30136452 -9.30684157 8.46026235 -5 2 C-1.52631579 0 -1.52631579 0 0 0 Z " fill="#E9B645" transform="translate(91,99)"/>
<path d="M0 0 C2 3 2 3 1.625 6.1875 C1.315625 7.5796875 1.315625 7.5796875 1 9 C0.01 9 -0.98 9 -2 9 C-2 10.65 -2 12.3 -2 14 C-3.65 14.66 -5.3 15.32 -7 16 C-7 16.33 -7 16.66 -7 17 C-9.31 17 -11.62 17 -14 17 C-14.33 16.34 -14.66 15.68 -15 15 C-13.96875 14.649375 -12.9375 14.29875 -11.875 13.9375 C-6.41511188 11.60071218 -3.10260324 7.35556146 -0.625 2.0625 C-0.41875 1.381875 -0.2125 0.70125 0 0 Z " fill="#D84E86" transform="translate(257,134)"/>
<path d="M0 0 C1.67542976 0.28604898 3.34385343 0.61781233 5 1 C5.33 1.99 5.66 2.98 6 4 C6.99 4.33 7.98 4.66 9 5 C9 6.65 9 8.3 9 10 C6.69 9.01 4.38 8.02 2 7 C1.67 7.99 1.34 8.98 1 10 C-0.98 9.01 -2.96 8.02 -5 7 C-3.68 6.67 -2.36 6.34 -1 6 C-1.020625 5.195625 -1.04125 4.39125 -1.0625 3.5625 C-1 1 -1 1 0 0 Z " fill="#EDB05E" transform="translate(144,255)"/>
<path d="M0 0 C7.17696703 0 10.7250679 2.71542941 16.30078125 7.0546875 C19.76128478 9.54865386 22.93880026 10.77397744 27 12 C27 12.66 27 13.32 27 14 C17.28205531 12.87585419 7.53814326 7.10230645 0 1 C0 0.67 0 0.34 0 0 Z " fill="#DEB555" transform="translate(35,170)"/>
<path d="M0 0 C1.32 0 2.64 0 4 0 C4 0.66 4 1.32 4 2 C4.99 1.34 5.98 0.68 7 0 C7.99 0 8.98 0 10 0 C12 3 12 3 11.625 5.1875 C11.41875 5.785625 11.2125 6.38375 11 7 C10.34 6.01 9.68 5.02 9 4 C9 6.64 9 9.28 9 12 C4.16545537 8.77697025 2.24783891 5.17379682 0 0 Z " fill="#E9B855" transform="translate(90,220)"/>
<path d="M0 0 C1.1446875 0.2475 1.1446875 0.2475 2.3125 0.5 C5.03596236 1.09145396 5.03596236 1.09145396 8 1 C9.67099977 1.31088368 11.33871537 1.64080332 13 2 C13 2.99 13 3.98 13 5 C14.65 4.67 16.3 4.34 18 4 C18.33 4.66 18.66 5.32 19 6 C12.41157251 7.58610292 8.94360806 6.48903697 3.00390625 3.32421875 C1 2 1 2 0 0 Z M17 0 C19.475 0.99 19.475 0.99 22 2 C20.02 2.99 20.02 2.99 18 4 C17.67 2.68 17.34 1.36 17 0 Z " fill="#EDBB46" transform="translate(153,261)"/>
<path d="M0 0 C4.32302001 6.48453001 3.71013582 13.96052614 2.3984375 21.421875 C1.01856353 27.24800955 1.01856353 27.24800955 0 30 C-0.66 30.33 -1.32 30.66 -2 31 C-2.144375 30.2575 -2.28875 29.515 -2.4375 28.75 C-2.90187492 26.47972261 -3.41863569 24.24240521 -4 22 C-2.35 22 -0.7 22 1 22 C0.67 14.74 0.34 7.48 0 0 Z " fill="#AB466E" transform="translate(297,122)"/>
<path d="M0 0 C8.3046124 -0.81417769 16.54910042 1.89455209 23.390625 6.66796875 C23.92171875 7.10753906 24.4528125 7.54710938 25 8 C24.01 8.495 24.01 8.495 23 9 C23.33 9.66 23.66 10.32 24 11 C19.20183313 9.19159999 14.70456893 6.85624289 10.171875 4.47851562 C6.79663297 2.75053846 3.76478031 1.5205094 0 1 C0 0.67 0 0.34 0 0 Z " fill="#C25981" transform="translate(141,84)"/>
<path d="M0 0 C0.33 0.99 0.66 1.98 1 3 C1.66 3 2.32 3 3 3 C3 4.65 3 6.3 3 8 C2.01 8.495 2.01 8.495 1 9 C0.5763662 11.84776054 0.24980647 14.63647771 0 17.5 C-0.24980647 20.36352229 -0.5763662 23.15223946 -1 26 C-1.66 26.33 -2.32 26.66 -3 27 C-2.88970353 23.43688596 -2.75917283 19.87478855 -2.625 16.3125 C-2.5940625 15.30509766 -2.563125 14.29769531 -2.53125 13.25976562 C-2.49257813 12.28330078 -2.45390625 11.30683594 -2.4140625 10.30078125 C-2.3826416 9.40528564 -2.3512207 8.50979004 -2.31884766 7.5871582 C-1.97338887 4.78407493 -1.15318532 2.56735469 0 0 Z " fill="#D64E86" transform="translate(262,105)"/>
<path d="M0 0 C0.33 0 0.66 0 1 0 C1.03738281 0.92039063 1.07476562 1.84078125 1.11328125 2.7890625 C1.69047386 13.90284962 3.32963994 24.43381194 7 35 C3.22882434 33.11441217 2.50665733 28.1244282 1.109375 24.34765625 C-1.12583456 17.60267529 -3.29199188 6.58398376 0 0 Z " fill="#EEC56B" transform="translate(117,189)"/>
<path d="M0 0 C0.33 0 0.66 0 1 0 C1 2.64 1 5.28 1 8 C1.66 8.33 2.32 8.66 3 9 C3 11.64 3 14.28 3 17 C3.66 16.67 4.32 16.34 5 16 C5.66 17.65 6.32 19.3 7 21 C2.26815501 21 1.48207798 19.93227619 -2 17 C-2.66 17 -3.32 17 -4 17 C-4.66 16.01 -5.32 15.02 -6 14 C-5.67 13.01 -5.34 12.02 -5 11 C-4.01 12.485 -4.01 12.485 -3 14 C-2.01 14.33 -1.02 14.66 0 15 C0 10.05 0 5.1 0 0 Z " fill="#E5C782" transform="translate(160,147)"/>
<path d="M0 0 C0.33 1.32 0.66 2.64 1 4 C-0.26572233 5.15147661 -1.53777906 6.29599314 -2.8125 7.4375 C-3.87404297 8.39462891 -3.87404297 8.39462891 -4.95703125 9.37109375 C-7 11 -7 11 -10 12 C-8.76841997 6.28994714 -6.8747047 0 0 0 Z " fill="#CC5081" transform="translate(218,252)"/>
<path d="M0 0 C2 1 2 1 5 3 C10.19332863 5.57653514 15.38692723 7.56687504 21 9 C21 9.33 21 9.66 21 10 C13.03235534 9.56071921 5.22669447 8.61334723 -2 5 C-1.34 3.35 -0.68 1.7 0 0 Z " fill="#2A2953" transform="translate(143,200)"/>
<path d="M0 0 C5.55613215 6.11174537 6.27823798 12.07021754 6 20 C4.81994066 17.63988133 3.68863179 15.29234498 2.625 12.875 C0.95267372 9.91626889 0.14120461 9.083174 -3 8 C-2.67 7.01 -2.34 6.02 -2 5 C-1.34 5 -0.68 5 0 5 C0 3.35 0 1.7 0 0 Z " fill="#2B2A4B" transform="translate(176,164)"/>
<path d="M0 0 C1.13888672 0.10828125 1.13888672 0.10828125 2.30078125 0.21875 C0.76861071 3.66613372 -1.10492319 6.47184882 -3.69921875 9.21875 C-5.01921875 9.21875 -6.33921875 9.21875 -7.69921875 9.21875 C-7.63734375 10.0025 -7.57546875 10.78625 -7.51171875 11.59375 C-7.57359375 12.46 -7.63546875 13.32625 -7.69921875 14.21875 C-8.68921875 14.87875 -9.67921875 15.53875 -10.69921875 16.21875 C-9.6149015 10.14657338 -7.26909282 0.58910159 0 0 Z " fill="#EEBA45" transform="translate(28.69921875,107.78125)"/>
<path d="M0 0 C-2.05821081 1.15416506 -4.12099472 2.29835847 -6.1875 3.4375 C-7.33605469 4.07558594 -8.48460938 4.71367188 -9.66796875 5.37109375 C-12.56550257 6.78759035 -14.83194128 7.57639893 -18 8 C-18.33 7.01 -18.66 6.02 -19 5 C-17.06305322 4.18618205 -15.12542289 3.37399084 -13.1875 2.5625 C-12.10855469 2.11003906 -11.02960938 1.65757813 -9.91796875 1.19140625 C-3.97706835 -1.23426259 -3.97706835 -1.23426259 0 0 Z " fill="#D8B262" transform="translate(117,85)"/>
<path d="M0 0 C8.14313352 -0.69665591 14.15314684 0.35090218 21 5 C21.33 5.66 21.66 6.32 22 7 C15.75243225 7.42356392 13.86860641 7.03738093 9 3 C6.03914497 2.0866515 3.05464273 1.50577962 0 1 C0 0.67 0 0.34 0 0 Z " fill="#C94E7F" transform="translate(272,110)"/>
<path d="M0 0 C2.94995547 3.45856848 5.22675738 6.80021485 7 11 C6.67 11.66 6.34 12.32 6 13 C5.01 12.34 4.02 11.68 3 11 C2.01 12.485 2.01 12.485 1 14 C0.67 11.36 0.34 8.72 0 6 C-0.66 6 -1.32 6 -2 6 C-2 4.68 -2 3.36 -2 2 C-1.34 2 -0.68 2 0 2 C0 1.34 0 0.68 0 0 Z " fill="#CA477B" transform="translate(259,96)"/>
<path d="M0 0 C0.66 0 1.32 0 2 0 C2 0.99 2 1.98 2 3 C3.32 3 4.64 3 6 3 C6 2.01 6 1.02 6 0 C7.65 0 9.3 0 11 0 C11 0.66 11 1.32 11 2 C11.66 2.33 12.32 2.66 13 3 C12.01 3.66 11.02 4.32 10 5 C9.01 6.485 9.01 6.485 8 8 C8 6.35 8 4.7 8 3 C6.95199219 3.55880859 6.95199219 3.55880859 5.8828125 4.12890625 C4.97273437 4.60199219 4.06265625 5.07507813 3.125 5.5625 C1.76761719 6.27599609 1.76761719 6.27599609 0.3828125 7.00390625 C-0.40351563 7.33261719 -1.18984375 7.66132813 -2 8 C-2.66 7.67 -3.32 7.34 -4 7 C-3.34 6.21625 -2.68 5.4325 -2 4.625 C0.20201441 2.28487188 0.20201441 2.28487188 0 0 Z " fill="#291405" transform="translate(154,140)"/>
<path d="M0 0 C1.14669461 3.44008383 0.69712956 4.5143522 0 8 C-0.068089 10.78075485 -0.09478336 13.53364739 -0.0625 16.3125 C-0.05798828 17.05306641 -0.05347656 17.79363281 -0.04882812 18.55664062 C-0.03712175 20.37112899 -0.01918898 22.18557534 0 24 C-0.99 24 -1.98 24 -3 24 C-3.08164159 21.3118751 -3.14079668 18.626277 -3.1875 15.9375 C-3.21263672 15.18533203 -3.23777344 14.43316406 -3.26367188 13.65820312 C-3.33282151 8.33368144 -2.40669334 4.75653566 0 0 Z " fill="#EBC364" transform="translate(24,120)"/>
<path d="M0 0 C1.39025391 0.07831055 1.39025391 0.07831055 2.80859375 0.15820312 C5.08113901 0.28705878 7.35315099 0.42198311 9.625 0.5625 C9.625 0.8925 9.625 1.2225 9.625 1.5625 C8.15740234 1.61857422 8.15740234 1.61857422 6.66015625 1.67578125 C-0.82341967 2.05106382 -7.36146123 2.73247558 -14.375 5.5625 C-14.375 4.9025 -14.375 4.2425 -14.375 3.5625 C-13.715 3.5625 -13.055 3.5625 -12.375 3.5625 C-12.375 2.9025 -12.375 2.2425 -12.375 1.5625 C-13.695 1.2325 -15.015 0.9025 -16.375 0.5625 C-10.83278869 -0.6803547 -5.61609437 -0.34850229 0 0 Z " fill="#D6C38B" transform="translate(118.375,112.4375)"/>
<path d="M0 0 C0.88945312 0.00322266 1.77890625 0.00644531 2.6953125 0.00976562 C4.07589844 0.02233398 4.07589844 0.02233398 5.484375 0.03515625 C6.42023438 0.03966797 7.35609375 0.04417969 8.3203125 0.04882812 C10.62506541 0.06058707 12.92968727 0.07702199 15.234375 0.09765625 C15.234375 0.42765625 15.234375 0.75765625 15.234375 1.09765625 C7.314375 1.59265625 7.314375 1.59265625 -0.765625 2.09765625 C-0.435625 3.08765625 -0.105625 4.07765625 0.234375 5.09765625 C-3.065625 5.09765625 -6.365625 5.09765625 -9.765625 5.09765625 C-9.105625 4.43765625 -8.445625 3.77765625 -7.765625 3.09765625 C-8.095625 2.43765625 -8.425625 1.77765625 -8.765625 1.09765625 C-5.76855805 0.22802538 -3.11605974 -0.01997474 0 0 Z " fill="#34335D" transform="translate(173.765625,200.90234375)"/>
<path d="M0 0 C2.64 0.33 5.28 0.66 8 1 C6.34312722 2.65687278 4.68305351 4.30704191 3 5.9375 C1.13605108 7.85969733 -0.44576576 9.82407206 -2 12 C-2.28571429 3.42857143 -2.28571429 3.42857143 0 0 Z " fill="#0E0E3B" transform="translate(187,168)"/>
<path d="M0 0 C0.33 0.99 0.66 1.98 1 3 C-0.328125 5.2265625 -0.328125 5.2265625 -2.25 7.625 C-2.87390625 8.42164063 -3.4978125 9.21828125 -4.140625 10.0390625 C-6 12 -6 12 -9 13 C-10.68538601 14.99665314 -10.68538601 14.99665314 -12 17 C-13.32 15.68 -14.64 14.36 -16 13 C-15.34773437 12.731875 -14.69546875 12.46375 -14.0234375 12.1875 C-7.46283522 9.24587302 -3.74543803 6.13581921 0 0 Z " fill="#1D040D" transform="translate(259,151)"/>
<path d="M0 0 C0.99 0 1.98 0 3 0 C5.13480153 7.73865554 5.20483028 15.00023956 5 23 C4.34 23 3.68 23 3 23 C2.92652344 21.64068359 2.92652344 21.64068359 2.8515625 20.25390625 C2.42420873 13.29098709 1.74718596 6.75578571 0 0 Z " fill="#D05488" transform="translate(290,121)"/>
<path d="M0 0 C0 0.66 0 1.32 0 2 C-1.32 2.33 -2.64 2.66 -4 3 C-3.67 3.33 -3.34 3.66 -3 4 C-2.67 4.99 -2.34 5.98 -2 7 C-7.5 7.36666667 -7.5 7.36666667 -9.875 5.625 C-11 4 -11 4 -11 2 C-9.73392393 1.46770674 -8.46189588 0.94955456 -7.1875 0.4375 C-6.47980469 0.14746094 -5.77210938 -0.14257812 -5.04296875 -0.44140625 C-3 -1 -3 -1 0 0 Z " fill="#35335E" transform="translate(219,125)"/>
<path d="M0 0 C2.5960213 0.93745214 4.74523359 1.80276149 6.9375 3.5 C9.04473224 5.20024915 9.04473224 5.20024915 12.1875 6 C13.5796875 6.495 13.5796875 6.495 15 7 C15.33 7.99 15.66 8.98 16 10 C18.49759982 11.69882448 18.49759982 11.69882448 21 13 C20.67 13.66 20.34 14.32 20 15 C4.48275862 4.81034483 4.48275862 4.81034483 0 1 C0 0.67 0 0.34 0 0 Z " fill="#DCB457" transform="translate(117,246)"/>
<path d="M0 0 C0.8353125 1.0828125 0.8353125 1.0828125 1.6875 2.1875 C3.97909334 4.97457299 6.41459857 7.48641528 9 10 C3.05925113 8.99667352 -1.20186518 7.69087294 -6 4 C-5.01 3.67 -4.02 3.34 -3 3 C-2.34 3.33 -1.68 3.66 -1 4 C-0.67 2.68 -0.34 1.36 0 0 Z " fill="#211002" transform="translate(112,141)"/>
<path d="M0 0 C-0.75 6.75 -0.75 6.75 -3 9 C-3.99 9 -4.98 9 -6 9 C-6.33 9.66 -6.66 10.32 -7 11 C-7.99 11 -8.98 11 -10 11 C-8.64763423 8.06120516 -7.10057341 5.70767089 -5 3.25 C-4.484375 2.63640625 -3.96875 2.0228125 -3.4375 1.390625 C-2 0 -2 0 0 0 Z " fill="#C86A90" transform="translate(203,255)"/>
<path d="M0 0 C0.66 0.33 1.32 0.66 2 1 C1 4 1 4 -1.1875 5.125 C-6.86288451 6.89067518 -12.1103462 7.10154576 -18 7 C-18 6.67 -18 6.34 -18 6 C-17.28714844 5.81824219 -16.57429687 5.63648438 -15.83984375 5.44921875 C-9.25877319 3.72681439 -9.25877319 3.72681439 -2.9375 1.25 C-1.968125 0.8375 -0.99875 0.425 0 0 Z " fill="#222041" transform="translate(213,204)"/>
<path d="M0 0 C0.99 0 1.98 0 3 0 C3 0.99 3 1.98 3 3 C4.32 3.33 5.64 3.66 7 4 C7 5.32 7 6.64 7 8 C7.598125 8.061875 8.19625 8.12375 8.8125 8.1875 C11.87143458 9.3236757 12.55041099 11.17330142 14 14 C11 14 11 14 8.80859375 11.953125 C7.63490234 10.61507812 7.63490234 10.61507812 6.4375 9.25 C5.65246094 8.36828125 4.86742188 7.4865625 4.05859375 6.578125 C2.32793912 4.41070175 1.09301712 2.52870987 0 0 Z " fill="#E0B553" transform="translate(104,231)"/>
<path d="M0 0 C0.33 0.66 0.66 1.32 1 2 C0.505 2.45375 0.01 2.9075 -0.5 3.375 C-2.22609337 4.87635519 -2.22609337 4.87635519 -2 7 C-3.32 7.33 -4.64 7.66 -6 8 C-6 9.98 -6 11.96 -6 14 C-7.98 14.99 -7.98 14.99 -10 16 C-8.32276617 9.86377868 -6.4664089 5.58093221 -2 1 C-1.34 0.67 -0.68 0.34 0 0 Z " fill="#DEB24D" transform="translate(97,166)"/>
<path d="M0 0 C3.16658663 -0.05880804 6.33302993 -0.09386406 9.5 -0.125 C10.386875 -0.14175781 11.27375 -0.15851563 12.1875 -0.17578125 C17.82323788 -0.2172205 22.59300232 0.39558714 28 2 C27.67 2.66 27.34 3.32 27 4 C23.53058454 3.54177532 20.32604951 3.10868317 17 2 C15.66636297 1.85596652 14.32781954 1.75409577 12.98828125 1.68359375 C11.85229492 1.62075195 11.85229492 1.62075195 10.69335938 1.55664062 C9.51483398 1.49766602 9.51483398 1.49766602 8.3125 1.4375 C7.51521484 1.39431641 6.71792969 1.35113281 5.89648438 1.30664062 C3.93118553 1.20072632 1.96561504 1.09987449 0 1 C0 0.67 0 0.34 0 0 Z " fill="#B38093" transform="translate(218,85)"/>
<path d="M0 0 C0 0.66 0 1.32 0 2 C0.66 2.33 1.32 2.66 2 3 C-6.25 2.67 -14.5 2.34 -23 2 C-23 1.67 -23 1.34 -23 1 C-20.47932687 0.83054298 -17.95850616 0.66436516 -15.4375 0.5 C-14.73302734 0.45230469 -14.02855469 0.40460938 -13.30273438 0.35546875 C-8.85739865 0.0686729 -4.45455341 -0.04682842 0 0 Z " fill="#3B222A" transform="translate(146,81)"/>
<path d="M0 0 C1.32 0.66 2.64 1.32 4 2 C4.49230769 9.26153846 4.49230769 9.26153846 2 13 C1.34 13.66 0.68 14.32 0 15 C0.50712033 11.28111761 1.11608215 8.26545761 3 5 C1.68 5.33 0.36 5.66 -1 6 C-0.67 4.02 -0.34 2.04 0 0 Z " fill="#C25681" transform="translate(228,230)"/>
<path d="M0 0 C2.43769218 3.65653827 2.23944439 5.69000101 2 10 C1.67 10.33 1.34 10.66 1 11 C0.95919217 12.99958364 0.95745644 15.00045254 1 17 C0.01 17.33 -0.98 17.66 -2 18 C-1.48758893 11.97099313 -0.930215 5.97995357 0 0 Z " fill="#D55C8F" transform="translate(247,197)"/>
<path d="M0 0 C1.134375 0.020625 2.26875 0.04125 3.4375 0.0625 C-0.38055752 3.88055752 -4.93007381 3.22460935 -10.125 3.25 C-10.79724609 3.26224609 -11.46949219 3.27449219 -12.16210938 3.28710938 C-15.86128237 3.29812975 -17.40221933 3.16935378 -20.5625 1.0625 C-19.41910156 1.07410156 -18.27570313 1.08570313 -17.09765625 1.09765625 C-15.60677246 1.10703288 -14.11588691 1.11613321 -12.625 1.125 C-11.87025391 1.13337891 -11.11550781 1.14175781 -10.33789062 1.15039062 C-8.41255687 1.15902441 -6.48714419 1.11474333 -4.5625 1.0625 C-3.5625 0.0625 -3.5625 0.0625 0 0 Z " fill="#EDCB7B" transform="translate(150.5625,156.9375)"/>
<path d="M0 0 C3.45925163 1.2491742 6.14693203 2.67527795 9 5 C8.67 5.99 8.34 6.98 8 8 C6.865625 7.505 5.73125 7.01 4.5625 6.5 C1.49062936 4.93532383 1.49062936 4.93532383 0 5 C0 3.35 0 1.7 0 0 Z " fill="#C15768" transform="translate(144,257)"/>
<path d="M0 0 C0.66 0.33 1.32 0.66 2 1 C1.48517081 6.852795 0.54642808 12.3297637 -1 18 C-1.33 18 -1.66 18 -2 18 C-1.85980308 15.18711295 -1.71312045 12.37483115 -1.5625 9.5625 C-1.52318359 8.76005859 -1.48386719 7.95761719 -1.44335938 7.13085938 C-1.11328125 1.11328125 -1.11328125 1.11328125 0 0 Z " fill="#BC4E79" transform="translate(252,199)"/>
<path d="M0 0 C0.66 0 1.32 0 2 0 C2.33 2.64 2.66 5.28 3 8 C2.01 8.66 1.02 9.32 0 10 C-0.66 10.99 -1.32 11.98 -2 13 C-1.85966889 11.02043559 -1.7125877 9.04134859 -1.5625 7.0625 C-1.48128906 5.96035156 -1.40007812 4.85820312 -1.31640625 3.72265625 C-1 1 -1 1 0 0 Z " fill="#DBDAE3" transform="translate(183,175)"/>
<path d="M0 0 C1.375 2.5625 1.375 2.5625 2 5 C1.01 5.495 1.01 5.495 0 6 C-0.33 5.01 -0.66 4.02 -1 3 C-2.65 3.33 -4.3 3.66 -6 4 C-6.66 2.68 -7.32 1.36 -8 0 C-5.01122021 -1.4943899 -3.14997454 -0.91874257 0 0 Z " fill="#CB497E" transform="translate(295,117)"/>
<path d="M0 0 C-0.33 0.99 -0.66 1.98 -1 3 C-1.99 3.33 -2.98 3.66 -4 4 C-4 3.34 -4 2.68 -4 2 C-7.96 2 -11.92 2 -16 2 C-16 2.66 -16 3.32 -16 4 C-17.32 3.34 -18.64 2.68 -20 2 C-20 1.67 -20 1.34 -20 1 C-17.4167588 0.83178895 -14.83342301 0.66537483 -12.25 0.5 C-11.52039063 0.45230469 -10.79078125 0.40460938 -10.0390625 0.35546875 C-6.68189836 0.14183103 -3.36563724 0 0 0 Z " fill="#EACB78" transform="translate(196,228)"/>
<path d="M0 0 C0.99 0 1.98 0 3 0 C3.1875 2.375 3.1875 2.375 3 5 C2.01 5.66 1.02 6.32 0 7 C-0.99 6.67 -1.98 6.34 -3 6 C-3 6.66 -3 7.32 -3 8 C-3.66 7.67 -4.32 7.34 -5 7 C-3.47793991 4.37098712 -2.15634036 2.15634036 0 0 Z " fill="#0E0A40" transform="translate(214,209)"/>
<path d="M0 0 C2.83735395 1.11774549 5.64192594 2.28011314 8.4375 3.5 C11.59400592 4.82905512 14.73732077 5.96549195 18 7 C18 7.33 18 7.66 18 8 C12.72670394 8.31639776 9.48803782 7.82941515 5 5 C2.125 2.3125 2.125 2.3125 0 0 Z " fill="#DDB559" transform="translate(82,156)"/>
<path d="M0 0 C1.5 1.3125 1.5 1.3125 3 3 C3 3.99 3 4.98 3 6 C2.01 6.66 1.02 7.32 0 8 C-0.72382467 10.05925139 -0.72382467 10.05925139 -1 12 C-1.66 12 -2.32 12 -3 12 C-2.14285714 3.42857143 -2.14285714 3.42857143 0 0 Z " fill="#EBBA50" transform="translate(82,110)"/>
<path d="M0 0 C2.86724686 0.57344937 3.8614515 0.8614515 6 3 C5.2575 3.515625 4.515 4.03125 3.75 4.5625 C0.46371455 7.47534392 -0.98763759 10.12433906 -3 14 C-3.33 13.01 -3.66 12.02 -4 11 C-2.1875 8 -2.1875 8 0 5 C0.66 4.01 1.32 3.02 2 2 C0.68 2.33 -0.64 2.66 -2 3 C-1.34 2.01 -0.68 1.02 0 0 Z " fill="#EAC263" transform="translate(29,106)"/>
<path d="M0 0 C4.875 4.625 4.875 4.625 6 8 C6.03954234 10.33299825 6.04401732 12.66708189 6 15 C2.03305785 10.66115702 2.03305785 10.66115702 1.875 7.5 C1.91625 6.675 1.9575 5.85 2 5 C1.07254351 2.26225382 1.07254351 2.26225382 0 0 Z " fill="#BC567E" transform="translate(174,98)"/>
<path d="M0 0 C1.89575251 -0.02721176 3.79161979 -0.04649136 5.6875 -0.0625 C6.74324219 -0.07410156 7.79898438 -0.08570312 8.88671875 -0.09765625 C11.72410262 -0.00865425 14.2438919 0.35060162 17 1 C17 1.33 17 1.66 17 2 C11.06 2.33 5.12 2.66 -1 3 C-0.67 2.01 -0.34 1.02 0 0 Z " fill="#C9AD79" transform="translate(44,100)"/>
<path d="M0 0 C1.65 0.33 3.3 0.66 5 1 C5 1.66 5 2.32 5 3 C5.99 3.33 6.98 3.66 8 4 C7.01 4.495 7.01 4.495 6 5 C3.875 4.0625 3.875 4.0625 2 3 C2.33 4.98 2.66 6.96 3 9 C1.68 9 0.36 9 -1 9 C-1 8.34 -1 7.68 -1 7 C-0.34 7 0.32 7 1 7 C0.67 4.69 0.34 2.38 0 0 Z " fill="#F1CB6C" transform="translate(177,257)"/>
<path d="M0 0 C1.75128818 0.28382946 3.50100003 0.57739529 5.25 0.875 C6.71179688 1.11863281 6.71179688 1.11863281 8.203125 1.3671875 C10.77264117 1.94855848 12.72071056 2.70840265 15 4 C14.34 4 13.68 4 13 4 C13 4.66 13 5.32 13 6 C8.14036821 5.39254603 4.2594482 3.27241033 0 1 C0 0.67 0 0.34 0 0 Z " fill="#C7C8DB" transform="translate(144,201)"/>
<path d="M0 0 C1.65 0 3.3 0 5 0 C4.21012527 1.91740583 3.41802852 3.83389641 2.625 5.75 C2.18414062 6.81734375 1.74328125 7.8846875 1.2890625 8.984375 C0.26692415 11.37555926 -0.80213595 13.69383183 -2 16 C-1.33333333 10.66666667 -0.66666667 5.33333333 0 0 Z " fill="#EAC467" transform="translate(120,170)"/>
<path d="M0 0 C-2.475 3.465 -2.475 3.465 -5 7 C-5.66 6.67 -6.32 6.34 -7 6 C-7 5.34 -7 4.68 -7 4 C-7.99 4 -8.98 4 -10 4 C-10 3.34 -10 2.68 -10 2 C-8.71211992 1.46987262 -7.41953322 0.9511671 -6.125 0.4375 C-5.40570313 0.14746094 -4.68640625 -0.14257812 -3.9453125 -0.44140625 C-2 -1 -2 -1 0 0 Z " fill="#CDA953" transform="translate(155,142)"/>
<path d="M0 0 C2.64 0 5.28 0 8 0 C8.33 0.99 8.66 1.98 9 3 C6.04335481 4.4783226 3.25770263 4.06032783 0 4 C-0.33 3.34 -0.66 2.68 -1 2 C-0.67 1.34 -0.34 0.68 0 0 Z " fill="#0A073D" transform="translate(203,200)"/>
<path d="M0 0 C0.33 0 0.66 0 1 0 C1.33 3.3 1.66 6.6 2 10 C2.33 10 2.66 10 3 10 C3 13.3 3 16.6 3 20 C0.18343868 17.18343868 0.01049136 15.38398395 -0.09765625 11.42578125 C-0.09103244 10.05465342 -0.07914198 8.68354283 -0.0625 7.3125 C-0.05798828 6.61060547 -0.05347656 5.90871094 -0.04882812 5.18554688 C-0.03706927 3.45699462 -0.01913454 1.72848635 0 0 Z " fill="#BC933E" transform="translate(78,122)"/>
<path d="M0 0 C0.33 0.66 0.66 1.32 1 2 C0.06553465 4.03144641 -0.93224776 6.03533587 -2 8 C-1.34 8.33 -0.68 8.66 0 9 C-0.33 10.32 -0.66 11.64 -1 13 C-1 12.01 -1 11.02 -1 10 C-1.66 10 -2.32 10 -3 10 C-3.33 10.99 -3.66 11.98 -4 13 C-4.33 13 -4.66 13 -5 13 C-4.54996653 7.37458159 -3.31558515 4.38512875 0 0 Z " fill="#301E08" transform="translate(104,123)"/>
<path d="M0 0 C2.475 0.99 2.475 0.99 5 2 C3.02 2.99 3.02 2.99 1 4 C0.67 2.68 0.34 1.36 0 0 Z M-9 4 C-5.7 4 -2.4 4 1 4 C1.33 4.66 1.66 5.32 2 6 C0.741875 6.185625 -0.51625 6.37125 -1.8125 6.5625 C-2.87404297 6.71912109 -2.87404297 6.71912109 -3.95703125 6.87890625 C-6 7 -6 7 -9 6 C-9 5.34 -9 4.68 -9 4 Z " fill="#E1B755" transform="translate(170,261)"/>
<path d="M0 0 C0 1.32 0 2.64 0 4 C0.99 4.33 1.98 4.66 3 5 C2.01 5.495 2.01 5.495 1 6 C-1.125 5.0625 -1.125 5.0625 -3 4 C-3 3.34 -3 2.68 -3 2 C-3.8971875 2.309375 -3.8971875 2.309375 -4.8125 2.625 C-7 3 -7 3 -10 1 C-6.61981469 -0.04005702 -3.5219721 -0.08004482 0 0 Z " fill="#2E2D5C" transform="translate(214,198)"/>
<path d="M0 0 C0.99 0.66 1.98 1.32 3 2 C3.1875 5.625 3.1875 5.625 3 9 C1.35 9.33 -0.3 9.66 -2 10 C-1.34 6.7 -0.68 3.4 0 0 Z " fill="#D85187" transform="translate(292,145)"/>
<path d="M0 0 C1.32 0 2.64 0 4 0 C4 0.66 4 1.32 4 2 C5.32 2 6.64 2 8 2 C8 2.66 8 3.32 8 4 C4.04 4 0.08 4 -4 4 C-2.68 2.68 -1.36 1.36 0 0 Z " fill="#F6C350" transform="translate(172,264)"/>
<path d="M0 0 C3.96 0.33 7.92 0.66 12 1 C12 1.33 12 1.66 12 2 C9.36 2 6.72 2 4 2 C4 2.66 4 3.32 4 4 C2.02 4 0.04 4 -2 4 C-1.34 2.68 -0.68 1.36 0 0 Z " fill="#080637" transform="translate(164,219)"/>
<path d="M0 0 C2.09749995 2.35968744 2.96905704 3.54616994 3.1875 6.75 C3.125625 7.4925 3.06375 8.235 3 9 C2.34 9 1.68 9 1 9 C-1.1875 6.6875 -1.1875 6.6875 -3 4 C-2.67 3.01 -2.34 2.02 -2 1 C-1.34 0.67 -0.68 0.34 0 0 Z " fill="#27254E" transform="translate(225,196)"/>
<path d="M0 0 C0.33 0.66 0.66 1.32 1 2 C2.32 2 3.64 2 5 2 C5 4.31 5 6.62 5 9 C0.23021583 5.57553957 0.23021583 5.57553957 -0.875 2.8125 C-0.91625 2.214375 -0.9575 1.61625 -1 1 C-0.67 0.67 -0.34 0.34 0 0 Z " fill="#EFBA4D" transform="translate(82,142)"/>
<path d="M0 0 C-2.98683086 2.98683086 -4.39077383 3.97934827 -8.6875 4.125 C-10.3271875 4.063125 -10.3271875 4.063125 -12 4 C-12.33 3.34 -12.66 2.68 -13 2 C-8.49646738 0.24252386 -4.82360189 -0.19294408 0 0 Z " fill="#B95A80" transform="translate(255,147)"/>
<path d="M0 0 C0.68359375 1.765625 0.68359375 1.765625 1 4 C-0.21484375 5.921875 -0.21484375 5.921875 -1.9375 7.75 C-2.50339844 8.36359375 -3.06929688 8.9771875 -3.65234375 9.609375 C-4.31943359 10.29773438 -4.31943359 10.29773438 -5 11 C-5.33 9.68 -5.66 8.36 -6 7 C-5.01 7 -4.02 7 -3 7 C-3.061875 6.21625 -3.12375 5.4325 -3.1875 4.625 C-3.125625 3.75875 -3.06375 2.8925 -3 2 C-2.01 1.34 -1.02 0.68 0 0 Z " fill="#C84F80" transform="translate(261,136)"/>
<path d="M0 0 C1.32 0 2.64 0 4 0 C5.125 6.75 5.125 6.75 4 9 C1.43135272 7.71567636 1.053461 6.63365249 0 4 C0 2.68 0 1.36 0 0 Z " fill="#DEDEEB" transform="translate(127,125)"/>
<path d="M0 0 C0.66 0 1.32 0 2 0 C2.66 1.98 3.32 3.96 4 6 C3.34 6 2.68 6 2 6 C2 7.32 2 8.64 2 10 C0.68 10 -0.64 10 -2 10 C-2.33 8.68 -2.66 7.36 -3 6 C-2.01 6.495 -2.01 6.495 -1 7 C-1 7.66 -1 8.32 -1 9 C-0.34 9 0.32 9 1 9 C0.67 6.03 0.34 3.06 0 0 Z " fill="#EBC96C" transform="translate(130,222)"/>
<path d="M0 0 C1.98 0 3.96 0 6 0 C4.69386058 3.91841827 3.16870152 6.32640809 0 9 C-0.66 9 -1.32 9 -2 9 C-2 8.01 -2 7.02 -2 6 C-1.01 6 -0.02 6 1 6 C1.33 5.01 1.66 4.02 2 3 C2.33 2.34 2.66 1.68 3 1 C2.01 0.67 1.02 0.34 0 0 Z " fill="#A7486D" transform="translate(253,151)"/>
<path d="M0 0 C1.98 0.66 3.96 1.32 6 2 C5.67 3.32 5.34 4.64 5 6 C3.68 6 2.36 6 1 6 C0.67 4.02 0.34 2.04 0 0 Z " fill="#F7C046" transform="translate(179,260)"/>
<path d="M0 0 C0.33 0.66 0.66 1.32 1 2 C1.99 2 2.98 2 4 2 C4 2.66 4 3.32 4 4 C1.69 5.32 -0.62 6.64 -3 8 C-1.125 1.125 -1.125 1.125 0 0 Z " fill="#B35076" transform="translate(211,256)"/>
<path d="M0 0 C1.65 0 3.3 0 5 0 C4.01 0.33 3.02 0.66 2 1 C2.33 3.31 2.66 5.62 3 8 C0.5625 7.625 0.5625 7.625 -2 7 C-2.33 6.34 -2.66 5.68 -3 5 C-2.01 5 -1.02 5 0 5 C0 3.35 0 1.7 0 0 Z " fill="#FEF7D0" transform="translate(175,256)"/>
<path d="M0 0 C3.4375 0.8125 3.4375 0.8125 7 2 C7.33 2.99 7.66 3.98 8 5 C10.01508358 5.73323796 10.01508358 5.73323796 12 6 C12 6.66 12 7.32 12 8 C7.44328408 6.48109469 3.68276708 4.04597738 0 1 C0 0.67 0 0.34 0 0 Z " fill="#FDF6CC" transform="translate(156,251)"/>
<path d="M0 0 C1.85776765 3.13498292 2.20140476 5.37471432 2 9 C1.34 9 0.68 9 0 9 C-1.98 5.535 -1.98 5.535 -4 2 C-3.01 2 -2.02 2 -1 2 C-0.67 1.34 -0.34 0.68 0 0 Z " fill="#FEF6C9" transform="translate(129,222)"/>
<path d="M0 0 C1.98 1.65 3.96 3.3 6 5 C5.67 5.66 5.34 6.32 5 7 C2.03 6.01 -0.94 5.02 -4 4 C-2.68 2.68 -1.36 1.36 0 0 Z " fill="#C8C7C2" transform="translate(66,181)"/>
<path d="M0 0 C3.3 0.99 6.6 1.98 10 3 C9.01 3.66 8.02 4.32 7 5 C7.33 5.66 7.66 6.32 8 7 C5.05043472 5.63055898 2.47531189 4.12169591 0 2 C0 1.34 0 0.68 0 0 Z " fill="#FDF2C7" transform="translate(112,153)"/>
<path d="M0 0 C1.32229189 2.64458379 1.09677194 4.67761301 1.0625 7.625 C1.05347656 8.62789062 1.04445312 9.63078125 1.03515625 10.6640625 C1.02355469 11.43492187 1.01195312 12.20578125 1 13 C0.34 13 -0.32 13 -1 13 C-1.33 10.36 -1.66 7.72 -2 5 C-3.65 5 -5.3 5 -7 5 C-4.702779 3.25728062 -2.40133271 1.60088848 0 0 Z " fill="#BC9B53" transform="translate(162,142)"/>
<path d="M0 0 C0.25 2.3125 0.25 2.3125 0 5 C-2 6.8125 -2 6.8125 -4 8 C-4.33 5.69 -4.66 3.38 -5 1 C-2 0 -2 0 0 0 Z " fill="#C94C7E" transform="translate(226,244)"/>
<path d="M0 0 C1.65 0 3.3 0 5 0 C4.42415568 2.38564077 3.77772405 4.66682784 3 7 C2.01 6.67 1.02 6.34 0 6 C0 4.02 0 2.04 0 0 Z " fill="#DC4984" transform="translate(226,235)"/>
<path d="M0 0 C0.70125 0.28875 1.4025 0.5775 2.125 0.875 C5.05452503 2.02133588 8.00921653 3.02625654 11 4 C11 4.66 11 5.32 11 6 C6.15340923 5.40895235 2.39251833 4.02055843 -2 2 C-1.34 1.34 -0.68 0.68 0 0 Z " fill="#CFB577" transform="translate(51,178)"/>
<path d="M0 0 C2.0625 0.4375 2.0625 0.4375 4 1 C2.87926138 1.83905565 1.75325453 2.67107831 0.625 3.5 C-0.31472656 4.19609375 -0.31472656 4.19609375 -1.2734375 4.90625 C-3 6 -3 6 -5 6 C-5 6.66 -5 7.32 -5 8 C-6.32 7.67 -7.64 7.34 -9 7 C-8.43410156 6.57847656 -7.86820312 6.15695313 -7.28515625 5.72265625 C-6.55167969 5.17480469 -5.81820313 4.62695312 -5.0625 4.0625 C-4.33160156 3.51722656 -3.60070312 2.97195312 -2.84765625 2.41015625 C-1.0865547 1.13092062 -1.0865547 1.13092062 0 0 Z " fill="#90526B" transform="translate(281,166)"/>
<path d="M0 0 C0.33 0 0.66 0 1 0 C1 1.65 1 3.3 1 5 C0.01 5.33 -0.98 5.66 -2 6 C-1.938125 6.78375 -1.87625 7.5675 -1.8125 8.375 C-1.874375 9.24125 -1.93625 10.1075 -2 11 C-2.99 11.66 -3.98 12.32 -5 13 C-3.92268251 8.11063599 -2.96912769 4.13096026 0 0 Z " fill="#E3B34F" transform="translate(23,111)"/>
<path d="M0 0 C4 4.75 4 4.75 4 7 C1.69 7.33 -0.62 7.66 -3 8 C-2.67 7.01 -2.34 6.02 -2 5 C-1.34 5 -0.68 5 0 5 C0 3.35 0 1.7 0 0 Z " fill="#201E4D" transform="translate(176,164)"/>
<path d="M0 0 C4.875 4.75 4.875 4.75 6 7 C4.35 6.67 2.7 6.34 1 6 C0.67 6.66 0.34 7.32 0 8 C-0.99 6.68 -1.98 5.36 -3 4 C-1.68 4.33 -0.36 4.66 1 5 C0.67 3.35 0.34 1.7 0 0 Z " fill="#ECC364" transform="translate(30,158)"/>
<path d="M0 0 C1.65 0 3.3 0 5 0 C5 0.66 5 1.32 5 2 C5.66 2.33 6.32 2.66 7 3 C6.01 3.66 5.02 4.32 4 5 C3.01 6.485 3.01 6.485 2 8 C2 6.35 2 4.7 2 3 C1.01 3.495 1.01 3.495 0 4 C0 2.68 0 1.36 0 0 Z " fill="#23180C" transform="translate(160,140)"/>
<path d="M0 0 C0.99 0 1.98 0 3 0 C3 0.66 3 1.32 3 2 C3.99 2.33 4.98 2.66 6 3 C4.35 4.65 2.7 6.3 1 8 C0.67 5.36 0.34 2.72 0 0 Z " fill="#B14C72" transform="translate(238,231)"/>
<path d="M0 0 C1.98 0 3.96 0 6 0 C6 1.65 6 3.3 6 5 C3.03 4.505 3.03 4.505 0 4 C0 2.66666667 0 1.33333333 0 0 Z " fill="#0C093E" transform="translate(152,199)"/>
<path d="M0 0 C0.33 0.66 0.66 1.32 1 2 C0.34 2 -0.32 2 -1 2 C-1.33 2.99 -1.66 3.98 -2 5 C-3.32 4.67 -4.64 4.34 -6 4 C-5.67 3.67 -5.34 3.34 -5 3 C-5.66 2.34 -6.32 1.68 -7 1 C-4.53721199 -0.231394 -2.7204945 -0.07159196 0 0 Z " fill="#323257" transform="translate(220,193)"/>
<path d="M0 0 C0.99 0 1.98 0 3 0 C3 2.31 3 4.62 3 7 C2.01 7.33 1.02 7.66 0 8 C-0.98120464 4.94736336 -0.98120464 3.05263664 0 0 Z " fill="#C9C9D4" transform="translate(221,123)"/>
<path d="M0 0 C1.670625 0.061875 1.670625 0.061875 3.375 0.125 C3.375 0.785 3.375 1.445 3.375 2.125 C4.365 2.455 5.355 2.785 6.375 3.125 C3.6530754 4.4859623 2.1918043 3.82866248 -0.75 3.1875 C-1.66007812 2.99285156 -2.57015625 2.79820313 -3.5078125 2.59765625 C-4.20648438 2.44167969 -4.90515625 2.28570312 -5.625 2.125 C-3.625 0.125 -3.625 0.125 0 0 Z " fill="#2B0612" transform="translate(281.625,107.875)"/>
<path d="M0 0 C2.64 0 5.28 0 8 0 C7.67 0.66 7.34 1.32 7 2 C4.49609375 2.4140625 4.49609375 2.4140625 1.4375 2.625 C0.42558594 2.69976562 -0.58632812 2.77453125 -1.62890625 2.8515625 C-2.41136719 2.90054688 -3.19382813 2.94953125 -4 3 C-2.68 2.67 -1.36 2.34 0 2 C0 1.34 0 0.68 0 0 Z " fill="#171549" transform="translate(168,221)"/>
<path d="M0 0 C2 3 2 3 1.86328125 5.19140625 C1.68152344 5.97386719 1.49976563 6.75632813 1.3125 7.5625 C1.14363281 8.34753906 0.97476563 9.13257813 0.80078125 9.94140625 C0 12 0 12 -3 14 C-2.01 9.38 -1.02 4.76 0 0 Z " fill="#2D0C18" transform="translate(253,205)"/>
<path d="M0 0 C1.49080078 0.43119141 1.49080078 0.43119141 3.01171875 0.87109375 C4.15060547 1.21333984 4.15060547 1.21333984 5.3125 1.5625 C5.3125 1.8925 5.3125 2.2225 5.3125 2.5625 C3.54094346 2.44820603 1.77023771 2.32066963 0 2.1875 C-0.98613281 2.11789063 -1.97226563 2.04828125 -2.98828125 1.9765625 C-5.6875 1.5625 -5.6875 1.5625 -8.6875 -0.4375 C-5.05554504 -1.64815165 -3.62218371 -1.06534815 0 0 Z " fill="#4F4C64" transform="translate(158.6875,207.4375)"/>
<path d="M0 0 C0.94875 0.04125 1.8975 0.0825 2.875 0.125 C1.885 0.785 0.895 1.445 -0.125 2.125 C1.195 2.785 2.515 3.445 3.875 4.125 C0.5 4.25 0.5 4.25 -3.125 4.125 C-3.785 3.465 -4.445 2.805 -5.125 2.125 C-3.125 0.125 -3.125 0.125 0 0 Z " fill="#040234" transform="translate(166.125,200.875)"/>
<path d="M0 0 C0 3.6461404 -0.08577934 5.97607286 -2.5625 8.75 C-3.2740625 9.36875 -3.2740625 9.36875 -4 10 C-3.38461538 3.47692308 -3.38461538 3.47692308 -1.4375 1.0625 C-0.7259375 0.5365625 -0.7259375 0.5365625 0 0 Z " fill="#272646" transform="translate(131,192)"/>
<path d="M0 0 C0 0.66 0 1.32 0 2 C-2.97 2 -5.94 2 -9 2 C-9.33 1.34 -9.66 0.68 -10 0 C-6.42355152 -1.2380014 -3.66305234 -0.74926071 0 0 Z " fill="#290411" transform="translate(259,149)"/>
<path d="M0 0 C2.31 1.65 4.62 3.3 7 5 C3.23375329 6.25541557 1.62811066 5.37061958 -2 4 C-1.34 3.67 -0.68 3.34 0 3 C0 2.01 0 1.02 0 0 Z " fill="#4A300A" transform="translate(114,145)"/>
<path d="M0 0 C2.97 0.33 5.94 0.66 9 1 C9.33 1.99 9.66 2.98 10 4 C6.44219804 3.39009109 3.3171411 2.4216319 0 1 C0 0.67 0 0.34 0 0 Z " fill="#020119" transform="translate(131,124)"/>
<path d="M0 0 C1.77049689 -0.05410687 3.54146849 -0.09284119 5.3125 -0.125 C6.29863281 -0.14820312 7.28476562 -0.17140625 8.30078125 -0.1953125 C11 0 11 0 14 2 C9.04653013 3.59789351 4.86717585 2.28306814 0 1 C0 0.67 0 0.34 0 0 Z " fill="#AE5676" transform="translate(272,110)"/>
<path d="M0 0 C5.53846154 0.61538462 5.53846154 0.61538462 7.875 2.5625 C8.431875 3.2740625 8.431875 3.2740625 9 4 C6.69 4 4.38 4 2 4 C1.34 2.68 0.68 1.36 0 0 Z " fill="#CB4B7C" transform="translate(163,92)"/>
<path d="M0 0 C8.57142857 -0.28571429 8.57142857 -0.28571429 12 2 C12 2.66 12 3.32 12 4 C6.06 2.515 6.06 2.515 0 1 C0 0.67 0 0.34 0 0 Z " fill="#C06C8A" transform="translate(141,84)"/>
<path d="M0 0 C0.33 0 0.66 0 1 0 C1 3.96 1 7.92 1 12 C0.67 12 0.34 12 0 12 C-0.33 9.69 -0.66 7.38 -1 5 C-1.99 5.495 -1.99 5.495 -3 6 C-1.125 1.125 -1.125 1.125 0 0 Z " fill="#D5D5D5" transform="translate(57,145)"/>
<path d="M0 0 C3.99996286 1.33332095 4.83782337 3.4957827 7 7 C3.76509224 6.44225728 2.02144994 5.62788492 0 3 C0 2.01 0 1.02 0 0 Z " fill="#EFEDF2" transform="translate(202,127)"/>
<path d="M0 0 C0.66 0.33 1.32 0.66 2 1 C2 3.97 2 6.94 2 10 C0.68 9.01 -0.64 8.02 -2 7 C-1.34 4.69 -0.68 2.38 0 0 Z " fill="#B4904F" transform="translate(97,222)"/>
<path d="M0 0 C1.37562854 1.28965176 2.70766393 2.62689293 4 4 C4 4.66 4 5.32 4 6 C3.34 6 2.68 6 2 6 C1.67 6.99 1.34 7.98 1 9 C0.67 6.03 0.34 3.06 0 0 Z " fill="#271205" transform="translate(98,223)"/>
<path d="M0 0 C0.99 0.33 1.98 0.66 3 1 C3.33 2.65 3.66 4.3 4 6 C2.02 5.34 0.04 4.68 -2 4 C-1.34 3.67 -0.68 3.34 0 3 C0 2.01 0 1.02 0 0 Z " fill="#0E0C40" transform="translate(145,196)"/>
<path d="M0 0 C2 3 2 3 1.75 5.5625 C1 8 1 8 -1 10 C-1.125 2.25 -1.125 2.25 0 0 Z " fill="#2B294A" transform="translate(186,170)"/>
<path d="M0 0 C2.02054804 1.64169528 4.02043058 3.30911778 6 5 C6 5.33 6 5.66 6 6 C3.69 5.67 1.38 5.34 -1 5 C-0.34 4.67 0.32 4.34 1 4 C0.67 2.68 0.34 1.36 0 0 Z " fill="#F2C565" transform="translate(36,165)"/>
<path d="M0 0 C2.16874252 0.50603992 3.99967627 0.99983813 6 2 C5.67 2.99 5.34 3.98 5 5 C4.01 4.67 3.02 4.34 2 4 C1.67 4.66 1.34 5.32 1 6 C0.67 4.02 0.34 2.04 0 0 Z " fill="#0A0A3C" transform="translate(170,161)"/>
<path d="M0 0 C2.53524446 1.01409778 3.77139002 1.61497266 5.1875 4 C5.455625 4.66 5.72375 5.32 6 6 C6.33 6.66 6.66 7.32 7 8 C4.13792848 6.71700242 1.9754912 5.469364 0 3 C0 2.01 0 1.02 0 0 Z " fill="#E2B965" transform="translate(113,141)"/>
<path d="M0 0 C0.66 0.99 1.32 1.98 2 3 C0.35 5.31 -1.3 7.62 -3 10 C-3.66 9.67 -4.32 9.34 -5 9 C-3.99088542 7.2421875 -2.98177083 5.484375 -1.97265625 3.7265625 C-1.28280949 2.50201525 -0.62855462 1.25710923 0 0 Z " fill="#D65C8E" transform="translate(257,134)"/>
<path d="M0 0 C-2.46278801 2.46278801 -4.70676982 2.99771255 -8 4 C-8 3.34 -8 2.68 -8 2 C-8.66 1.67 -9.32 1.34 -10 1 C-6.52674819 -0.1577506 -3.63932552 -0.06866652 0 0 Z " fill="#464646" transform="translate(226,105)"/>
<path d="M0 0 C-2.38573379 1.89213369 -4.07175348 3.02391783 -7 4 C-7.33 2.68 -7.66 1.36 -8 0 C-5.13822943 -1.43088528 -3.06624227 -0.59991697 0 0 Z " fill="#E8C16C" transform="translate(103,92)"/>
<path d="M0 0 C1.32 0 2.64 0 4 0 C6.17457267 2.87354245 7 4.36436591 7 8 C5.83035398 6.8572081 4.66435444 5.71068285 3.5 4.5625 C2.8503125 3.92441406 2.200625 3.28632813 1.53125 2.62890625 C0 1 0 1 0 0 Z " fill="#FFF9D8" transform="translate(144,240)"/>
<path d="M0 0 C2.4375 0.8125 2.4375 0.8125 5 2 C5.33 2.99 5.66 3.98 6 5 C4.35 4.67 2.7 4.34 1 4 C0.67 2.68 0.34 1.36 0 0 Z " fill="#E4C468" transform="translate(45,174)"/>
<path d="M0 0 C4.75286041 4.29290618 4.75286041 4.29290618 5 8 C4.34 8.66 3.68 9.32 3 10 C3 8.68 3 7.36 3 6 C2.34 6 1.68 6 1 6 C0.67 4.02 0.34 2.04 0 0 Z " fill="#B54672" transform="translate(248,168)"/>
<path d="M0 0 C1.45880109 0.14107747 2.91703551 0.28802415 4.375 0.4375 C5.59316406 0.55931641 5.59316406 0.55931641 6.8359375 0.68359375 C9 1 9 1 11 2 C11 2.66 11 3.32 11 4 C9.53984709 3.71758359 8.08190207 3.42373386 6.625 3.125 C5.81289062 2.96257812 5.00078125 2.80015625 4.1640625 2.6328125 C2 2 2 2 0 0 Z " fill="#FBF5CF" transform="translate(123,162)"/>
<path d="M0 0 C1.98 0.66 3.96 1.32 6 2 C4.68 3.32 3.36 4.64 2 6 C1.34 5.34 0.68 4.68 0 4 C0 2.68 0 1.36 0 0 Z " fill="#261301" transform="translate(92,163)"/>
<path d="M0 0 C0.99 0 1.98 0 3 0 C2.01 2.97 1.02 5.94 0 9 C-0.33 9 -0.66 9 -1 9 C-0.67 6.03 -0.34 3.06 0 0 Z " fill="#B34C75" transform="translate(263,130)"/>
<path d="M0 0 C1.98 0.495 1.98 0.495 4 1 C3.1875 2.9375 3.1875 2.9375 2 5 C1.01 5.33 0.02 5.66 -1 6 C-0.67 4.02 -0.34 2.04 0 0 Z " fill="#1C1953" transform="translate(133,127)"/>
<path d="M0 0 C-1 3 -1 3 -2.8125 4.25 C-5.33943414 5.11637742 -6.52221994 4.88492145 -9 4 C-2.25 0 -2.25 0 0 0 Z " fill="#FDF8DF" transform="translate(108,90)"/>
<path d="M0 0 C1.32 0 2.64 0 4 0 C4 0.66 4 1.32 4 2 C3.01 2.33 2.02 2.66 1 3 C0.67 3.66 0.34 4.32 0 5 C-0.99 5 -1.98 5 -3 5 C-1.125 1.125 -1.125 1.125 0 0 Z " fill="#D25B8B" transform="translate(196,261)"/>
<path d="M0 0 C1.1446875 0.2475 1.1446875 0.2475 2.3125 0.5 C5.03596236 1.09145396 5.03596236 1.09145396 8 1 C8.33 1.66 8.66 2.32 9 3 C6.75 3.75 6.75 3.75 4 4 C1.6875 2.0625 1.6875 2.0625 0 0 Z " fill="#E4B74E" transform="translate(153,261)"/>
<path d="M0 0 C0.66 0 1.32 0 2 0 C1.74438677 2.3431213 1.40729228 4.67843403 1 7 C0.01 7.495 0.01 7.495 -1 8 C-1.04241723 5.66705225 -1.04092937 3.33297433 -1 1 C-0.67 0.67 -0.34 0.34 0 0 Z " fill="#393738" transform="translate(276,148)"/>
<path d="M0 0 C1.65 0 3.3 0 5 0 C5 1.32 5 2.64 5 4 C4.01 4.33 3.02 4.66 2 5 C1.34 3.35 0.68 1.7 0 0 Z " fill="#5A587A" transform="translate(139,129)"/>
<path d="M0 0 C1.32 0.66 2.64 1.32 4 2 C3.01 2.99 2.02 3.98 1 5 C-0.32 4.34 -1.64 3.68 -3 3 C-2.01 2.01 -1.02 1.02 0 0 Z " fill="#0B0939" transform="translate(216,126)"/>
</svg>
